<?xml version="1.0" encoding="UTF-8" ?>
<!DOCTYPE svg PUBLIC "-//W3C//DTD SVG 1.1//EN" "http://www.w3.org/Graphics/SVG/1.1/DTD/svg11.dtd">
<svg width="667pt" height="399pt" viewBox="0 0 667 399" version="1.1" xmlns="http://www.w3.org/2000/svg">
<g id="#29aafeff">
<path fill="#29aafe" opacity="1.00" d=" M 630.50 0.00 L 637.48 0.00 C 645.73 1.43 653.73 5.34 659.08 11.91 C 669.37 23.91 668.84 43.51 657.91 54.93 C 648.19 65.72 631.13 68.57 618.41 61.57 C 608.93 56.57 602.33 46.62 601.34 35.96 C 600.32 25.91 604.32 15.56 611.74 8.73 C 616.83 3.80 623.68 1.36 630.50 0.00 Z" />
<path fill="#29aafe" opacity="1.00" d=" M 0.00 19.94 C 13.32 20.12 26.64 19.95 39.95 20.57 C 87.71 20.60 135.48 20.83 183.24 21.52 C 215.44 21.76 247.65 21.68 279.85 22.23 C 293.96 54.82 293.45 93.42 278.81 125.76 C 266.76 152.48 245.94 174.39 222.29 191.29 C 208.98 201.13 194.04 208.62 181.33 219.30 C 166.90 231.00 154.18 245.21 145.89 261.95 C 137.00 279.15 133.09 298.77 134.13 318.07 C 135.38 346.92 145.97 374.74 161.26 399.00 L 151.54 399.00 C 148.07 398.34 144.53 398.34 141.00 398.43 C 118.67 398.38 96.34 398.27 74.01 397.90 C 49.35 396.95 24.67 397.62 0.00 397.00 L 0.00 19.94 Z" />
</g>
</svg>
