<svg xmlns="http://www.w3.org/2000/svg" width="473.842" height="751" viewBox="0 0 473.842 751">
  <g id="Group_5" data-name="Group 5" transform="translate(-282.658 -339)">
    <g id="Group_1" data-name="Group 1" transform="translate(74 45)">
      <g id="body_Device" data-name="body/Device" transform="translate(299.5 735)">
        <path id="_Skin" data-name="âœ‹ Skin" d="M182.7,138.687c-.834-3.648.384-7.287,1.059-10.816,2.4-12.24-4.162-43.112-8.75-43.563-1.678-6.921-6.156-9.791-9.681-13.777-4-3.98-7.89-8.551-12.05-12.04-.231-3.3-2.739-4.114-4.272-1.756-4.211-4.176-9.261-3.4-13.776-6.137-3.43-8.839-3.688-18.134-4.6-26.661-.4-3.717.025-7.3-1.569-10.618-5.352-12-26.5-17.2-34.3-10.092-4.2-4.173-4.3,3.385-4.965,8.049a22.443,22.443,0,0,0-1.018,7.761C86.8,25.654,85.12,33.929,80.944,38.871c-5.3,6.27-13.45,8.654-18.616,11.728a12.407,12.407,0,0,1-1.513-4.348A52.791,52.791,0,0,0,38.331,61.52C30.71,65.073,25.343,74.954,21.462,85.55a6.926,6.926,0,0,0-.4,3.3c-11.935,27.89-17.631,61.279-18.431,95-7.675,7.343,3.648,73.309,6.284,87l.008-.006c1.71,4.826,3.652,18.6,7.931,17.533,2.936,5.292,7.614,4.251,11.6,4.658a36.526,36.526,0,0,0,.442,12.429c.913,4.667,5.4,4.826,6.031-.263,39.671,12.288,80.376,2.483,120.493,4.328a341.155,341.155,0,0,1,34.769,2.021c1.629.185,3.281-2.469,3.17-5.055-2.488-42.2-4.824-97.7-7.606-139.486C185.087,157.487,184.565,147.853,182.7,138.687Z" transform="translate(14.59 -13.956)" fill="#d08b5b"/>
        <path id="_Top" data-name="ðŸ‘• Top" d="M133.976,267.611c-23.21,0-49.449-.657-70.188-1.757-10.359-.549-18.978-1.195-24.923-1.866-3.137-.354-5.572-.719-7.239-1.083-1.741-.381-2.661-.767-2.736-1.147a50.328,50.328,0,0,1-.754-7.465,41.063,41.063,0,0,1,.312-7.5c-.746-.076-1.532-.1-2.292-.127a16.261,16.261,0,0,1-5.025-.694,7.247,7.247,0,0,1-2.295-1.33,8.938,8.938,0,0,1-1.985-2.507,1.932,1.932,0,0,1-.466.059c-1.3,0-2.491-1.391-3.632-4.252a70.583,70.583,0,0,1-2.479-8.433c-.477-1.9-.928-3.7-1.354-4.906l-.008.006c-.7-3.634-1.9-10.36-3.173-18.339-1.584-9.927-2.874-19.194-3.835-27.545A248.734,248.734,0,0,1,0,152.369a59.3,59.3,0,0,1,.585-9.481,17.286,17.286,0,0,1,.819-3.248A5.513,5.513,0,0,1,2.627,137.6a309.975,309.975,0,0,1,5.04-49.688c1.527-8.127,3.408-16.016,5.589-23.446a196.477,196.477,0,0,1,7.8-21.868,6.97,6.97,0,0,1,.352-3.162l.052-.14c1.027-2.8,2.1-5.4,3.2-7.725a57.559,57.559,0,0,1,3.831-6.931,33.332,33.332,0,0,1,4.532-5.611,19.52,19.52,0,0,1,5.305-3.764,55,55,0,0,1,10.755-9.45A51.755,51.755,0,0,1,60.815,0c.012.085.025.177.041.281l-.152.548a34.953,34.953,0,0,0-1.442,8.778A20.342,20.342,0,0,0,59.9,13.34c.329,1.386.933,3.673,1.936,6.7a105.309,105.309,0,0,0,7.9,18.014C73.782,45.257,78.319,51,83.219,55.116a34.132,34.132,0,0,0,8.92,5.511,27.847,27.847,0,0,0,5.018,1.533,27.126,27.126,0,0,0,5.4.541,29.023,29.023,0,0,0,4.2-.312A48.259,48.259,0,0,0,114.54,60.6a41.454,41.454,0,0,0,6.986-2.974,39.217,39.217,0,0,0,6.187-4.155,41.305,41.305,0,0,0,5.388-5.337,47.955,47.955,0,0,0,4.589-6.518,59.794,59.794,0,0,0,3.79-7.7,77.826,77.826,0,0,0,2.991-8.881c.86-3.142,1.6-6.528,2.192-10.062l.28-6.138a12.094,12.094,0,0,1,2.068,1.652,2.544,2.544,0,0,1,2.034-1.352,1.874,1.874,0,0,1,1.479.8,4.272,4.272,0,0,1,.759,2.31,100.524,100.524,0,0,1,7.984,7.831h0c1.328,1.4,2.7,2.851,4.065,4.207l.244.273c.746.824,1.543,1.617,2.314,2.383a37.086,37.086,0,0,1,4.162,4.646,18.343,18.343,0,0,1,1.71,2.9,18.565,18.565,0,0,1,1.25,3.576l.656.067a2.253,2.253,0,0,1,1.389,1.042,13.166,13.166,0,0,1,1.432,2.634,55.691,55.691,0,0,1,2.656,8.487c.822,3.4,1.544,7.2,2.086,11A105.874,105.874,0,0,1,184.265,72.5a42.092,42.092,0,0,1-.5,9.117c-.136.712-.3,1.441-.453,2.145-.625,2.831-1.271,5.758-.606,8.671a128.012,128.012,0,0,1,1.84,12.669c.43,4.282.728,8.674,1.016,12.922v0l.005.08c.059.871.12,1.771.181,2.655,1.613,24.231,3.084,53.227,4.507,81.269v.014c1.056,20.818,2.054,40.481,3.1,58.2a5.766,5.766,0,0,1-.934,3.408,3.475,3.475,0,0,1-2.236,1.647c-5.327.779-13.208,1.373-23.422,1.765C157.415,267.429,146.385,267.611,133.976,267.611ZM155.708,87.729c-4.591,0-15.2,3.5-22.9,6.491a33.424,33.424,0,0,0-6.256,3.215,29.677,29.677,0,0,0-4.226,3.361,20.307,20.307,0,0,0-3.146,3.72L107.7,124.6l-2.9,2.994c0,.092.007,9.486.672,19.728a49.1,49.1,0,0,0,1.209,7.788c.519,2.246,1.194,4.615,2,7.043,1.379,4.128,2.7,7.041,2.71,7.07l.029-.013c1.591-.7,15.626-6.82,18.478-7.68,2.273-.686,4.2-5.344,5.611-8.744.478-1.155.891-2.151,1.247-2.833a4.767,4.767,0,0,1,2.357-1.976,28.849,28.849,0,0,1,3.746-1.329,31.434,31.434,0,0,0,4.95-1.828,7.323,7.323,0,0,0,2.662-2.564,18.272,18.272,0,0,0,1.8-3.592,30.265,30.265,0,0,0,1.335-4.58c.077-.026,9.143-3.147,12.033-4.177a1.78,1.78,0,0,0,1.271-1.434,4.471,4.471,0,0,0-.533-2.548,9.957,9.957,0,0,0-.737-1.325l-22.723-1.268.085-.03c2.283-.775,13.806-4.668,16.433-5.244a24.881,24.881,0,0,0,6.463-2.871A15.849,15.849,0,0,0,168.9,112.9a3.622,3.622,0,0,0,1.269-2.351c0-.652-.6-1.2-1.771-1.626a19.693,19.693,0,0,0-4.385-.861,110.3,110.3,0,0,0-11.052-.4h-1.442c-6.168,0-19.935,1.85-20.073,1.869l5.307-4.052c.18-.055,18-5.545,20.357-5.545a2.015,2.015,0,0,0,1.541-.893,7.409,7.409,0,0,0,1.054-1.964,17.589,17.589,0,0,0,.8-2.857c0-.009-.264-.969-.729-2.168a14.9,14.9,0,0,0-2.014-3.757A2.68,2.68,0,0,0,155.708,87.729Z" transform="translate(14.591 32.295)" fill="#ffcf77"/>
        <path id="_Device" data-name="ðŸ“± Device" d="M9.917,49.26,21.577,7.154S23.339,0,26.331,0s30.12,1.354,30.12,1.354S62,2.483,60.21,7.154,31.761,98.741,31.761,98.741H20.456V94.349l12.586-5.61s2.291-3.875-1.281-3.875S7.41,83.6,7.41,83.6l19.814-4.635,9.8-6.009-1.442-3.159-8.36-1.9L0,69.794,7.41,65.8l16.557-5.6s3.257-3.656,3.257-7.241S18.5,47.991,18.5,47.991Z" transform="translate(147.739 72.033)" fill="#fff"/>
        <path id="_Ink" data-name="ðŸ– Ink" d="M195.828,306.889a1.115,1.115,0,0,1-.952-.715,10.188,10.188,0,0,1-1.246-4.97c-.037-.977-.058-1.973-.078-2.936-.013-.646-.027-1.314-.046-1.97-.1-3.407-.223-6.98-.376-10.621-.307-7.334-.653-14.469-1.026-21.208-.805-14.519-2.056-29.215-3.266-43.427-.854-10.028-1.736-20.4-2.455-30.615-.892-12.7-1.507-25.3-1.826-37.452-.162-6.158-.225-12.471-.186-18.765.013-2.141.074-4.426.185-6.987-2.6,9.4-5.353,18.807-8.2,27.964l-.678,2.181c-1.76,5.653-3.662,11.633-5.851,17.149l-.374.935c-.092.233-.187.478-.288.737l0,0a33.737,33.737,0,0,1-1.483,3.439,4.761,4.761,0,0,1-1.924,2.265,3.562,3.562,0,0,1-1.461.261c-.412,0-.831-.04-1.237-.08h0c-.328-.032-.637-.061-.937-.071-.339-.01-.688-.018-1-.026-.795-.019-1.616-.038-2.426-.09a11.1,11.1,0,0,1-3.734-.881,3.266,3.266,0,0,1-.576-.306,16.14,16.14,0,0,1-2.417,4.258,13.846,13.846,0,0,1-3.105,2.9,29.05,29.05,0,0,1-5.365,2.678l-.642.257c-.279.111-.569.215-.849.316-1.714.617-3.487,1.255-4.429,3.827l-.255.7a18.345,18.345,0,0,1-2.954,5.745,12.655,12.655,0,0,1-2.352,2.137A17.961,17.961,0,0,1,129.47,205c-1.421.692-2.893,1.261-4.316,1.812l-.023.009c-.331.128-.673.261-1.009.393l-.487.193c-.384.153-.777.305-1.156.452l-.01,0c-.781.3-1.588.614-2.375.958-.539.236-1.025.452-1.5.712a5.378,5.378,0,0,0-1.445,1.341,4.411,4.411,0,0,1-1.293,2.481,3.072,3.072,0,0,1-2.039.876,2.273,2.273,0,0,1-.249-.014,3.493,3.493,0,0,1-2.041-1.086c-.7.95-1.454,1.844-2.183,2.71l0,0c-.384.455-.78.925-1.159,1.392-1.633,2.014-3.141,3.85-4.609,5.615-3.411,4.1-6.561,7.795-9.632,11.3-5.494,6.272-11.418,12.621-17.607,18.87-2.221,2.243-4.853,4.885-7.535,7.481l.27.16.536.323a6.5,6.5,0,0,1,1.846,1.564,5.306,5.306,0,0,1,1.08,2.767,4.362,4.362,0,0,1-.286,2.275,1.86,1.86,0,0,1-1.333,1.113,1.637,1.637,0,0,1-.315.031,2.319,2.319,0,0,1-1.659-.883,10.712,10.712,0,0,1-1.332-1.907c-.16-.275-.329-.546-.494-.808-.226-.361-.46-.734-.67-1.123a4.967,4.967,0,0,1-.361-.922c-2.764,2.6-5.248,4.8-7.594,6.742l-.643.528c-2.765,2.254-5.543,4.641-8.231,6.949l0,0c-3.5,3.006-7.119,6.115-10.75,8.967a29.356,29.356,0,0,1-5.845,3.709,68.045,68.045,0,0,1,.569,10.432l0,.431a3.388,3.388,0,0,1-.433,1.8,1.514,1.514,0,0,1-1.264.784,1.49,1.49,0,0,1-1.256-.788,3.339,3.339,0,0,1-.4-1.794l.035-1.659a66.946,66.946,0,0,1,.58-8.4,13.287,13.287,0,0,1-3.394.429,17.942,17.942,0,0,1-6.667-1.4,13.945,13.945,0,0,1-3.641-2.06,20.568,20.568,0,0,1-3.428-4.875,42.614,42.614,0,0,1-2.7-6.163c-.676-1.888-1.325-3.969-2.1-6.748-1.31-4.673-2.5-9.757-3.552-15.111C4.41,250,3.549,244.746,2.8,239.251,1.51,229.729.654,219.855.258,209.9c-.389-9.781-.338-19.775.15-29.707.483-9.827,1.4-19.72,2.729-29.407,1.323-9.655,3.07-19.226,5.191-28.448,2.134-9.279,4.663-18.362,7.514-27l.357-1.077c1.683-5.051,3.149-9.1,4.614-12.748a105.763,105.763,0,0,1,5.5-11.785A63.954,63.954,0,0,1,33.32,59.5a60.463,60.463,0,0,1,8.093-7.959,70.063,70.063,0,0,1,8.524-5.928c.411-.244.859-.487,1.41-.764A28.615,28.615,0,0,1,56.2,40.759a13.2,13.2,0,0,1,2.634-1.326,8.035,8.035,0,0,1,2.7-.5c.073,0,.142,0,.211,0a.759.759,0,0,1,.6.386,3.421,3.421,0,0,1,.533.192,1.7,1.7,0,0,1,.75,1.571l-.019.234a2.963,2.963,0,0,1-.046.333,1.587,1.587,0,0,1,.387.15,63.5,63.5,0,0,0,6.9-3.857c1.156-.71,2.352-1.444,3.524-2.111l.783-.441.2-.114.111-.062c2.755-1.536,5.6-3.125,7.878-6.192a36.732,36.732,0,0,0,5.394-11.7c.939-3.258,1.578-6.735,2.2-10.1C91.365,4.951,91.8,2.6,92.32.334c.057-.246.19-.334.3-.334.136,0,.285.144.29.46A93.2,93.2,0,0,1,91.4,19.092a53.58,53.58,0,0,1-2.385,8.66,29.13,29.13,0,0,1-3.729,7.084c-2.618,3.523-5.962,5.412-9.195,7.238-.53.3-1.077.608-1.615.922l-.419.246L67.5,47.137c-.246.146-.5.306-.744.461l0,0a6.346,6.346,0,0,1-3,1.287,1.968,1.968,0,0,1-1.4-.588c.371,1.467.73,2.97,1.078,4.424.817,3.419,1.661,6.954,2.723,10.276.952,2.977,2.007,5.827,3.137,8.47A76.759,76.759,0,0,0,73.1,79.2a52.811,52.811,0,0,0,6.935,9.626,40.718,40.718,0,0,0,7.99,6.78,34.163,34.163,0,0,0,8.706,4.011,31.96,31.96,0,0,0,9.084,1.32,33.664,33.664,0,0,0,11.507-2.066,41.236,41.236,0,0,0,5.986-2.723,37.974,37.974,0,0,0,10.927-9.131,43.077,43.077,0,0,0,4.541-6.775,48.572,48.572,0,0,0,2.807-6.23,64.622,64.622,0,0,0,2.133-6.958c.591-2.383,1.08-4.882,1.454-7.426.368-2.507.627-5.076.769-7.634a.911.911,0,0,1-.224.029.889.889,0,0,1-.294-.051,17.951,17.951,0,0,1-5.737-4.051l-.168-.161a20.838,20.838,0,0,1-4.639-5.968,29.48,29.48,0,0,1-1.677-6.237c-.455-2.3-.775-4.35-.778-4.37-.36-3.208-.661-9.258-.609-12.214,0-.18.317-.319.585-.319.172,0,.287.058.316.159a44.589,44.589,0,0,1,.93,6.277c.2,1.864.384,3.624.638,4.82l.117.544c.109.5.214,1.018.324,1.562l0,.008c.252,1.241.513,2.524.844,3.739a14.869,14.869,0,0,0,1.255,3.3c2.036,3.663,4.946,5.532,7.76,7.34l.007,0c.492.316,1,.643,1.49.97a4.655,4.655,0,0,1,.866-2.686,2.171,2.171,0,0,1,1.694-.895,2.231,2.231,0,0,1,1.869,1.17,5.123,5.123,0,0,1,.633,2.735c0,.209-.008.419-.012.621l0,.069q0,.068,0,.136c.4.349.781.751,1.1,1.1l.338.366a48.159,48.159,0,0,0,3.935,3.887c1.693,1.463,3.479,2.753,5.206,4,.965.7,1.963,1.417,2.935,2.161a42.768,42.768,0,0,1,3.973,3.455,46.813,46.813,0,0,1,3.713,4.125,53.661,53.661,0,0,1,3.22,4.485l.277.435c.157.249.318.5.489.761a16.6,16.6,0,0,1,2.3,4.534c.124.456.732,1.487,1.065,1.522a134.763,134.763,0,0,1,15.377,2.433,1.785,1.785,0,0,1,1.414,1.163,3.347,3.347,0,0,1-.057,1.975c-1.671,6.007-8.288,30.272-10,36.625.1,2.429.083,5.12.062,7.723-.02,2.488-.04,5.059.05,7.385.261,6.721.612,13.719,1.045,20.8,1.181,19.331,2.864,38.905,4.492,57.835.456,5.3.927,10.779,1.383,16.206,1.069,12.723,2.065,25.794,2.915,37.046.5,6.573.881,12.712,1.178,18.766.13,2.655.247,5.294.347,7.844l.088,2.32c.013.3.027.61.041.907v.008c.124,2.6.242,5.057-.773,7.3A1.8,1.8,0,0,1,195.828,306.889ZM4.859,221.951c.557,6.673,1.323,13.317,2.277,19.748l.213,1.423c.732,4.848,1.4,8.8,2.092,12.443.856,4.482,1.751,8.44,2.736,12.1a51.973,51.973,0,0,0,4.1,10.719,27.293,27.293,0,0,0,2.764,4.214,9.546,9.546,0,0,0,2.582,2.092,9.2,9.2,0,0,0,4.485,1.291c3.363,0,4.29-.509,5.974-1.433l.021-.012a50.835,50.835,0,0,0,7.938-5.919c.588-.5,1.2-1.015,1.791-1.51l.327-.271c1.318-1.087,2.684-2.232,4.177-3.5a14.258,14.258,0,0,1,.092-3.182,15.947,15.947,0,0,1,.777-3.053c.28-.791.726-1.227,1.257-1.227a1.418,1.418,0,0,1,1.089.666,3.343,3.343,0,0,1,.573,1.736l0,.088c.02.461.066.963.145,1.578,8.743-7.635,17.676-16.08,27.31-25.819,5.829-5.893,11.573-11.946,17.073-17.99C97.5,223,100.31,219.833,103,216.7c1.45-1.685,2.9-3.393,4.309-5.074.306-.365.613-.744.909-1.111.283-.35.576-.711.867-1.06-.147-.294-.29-.585-.423-.864a44.761,44.761,0,0,1-2.763-7.558,60.978,60.978,0,0,1-1.632-8.36,99.694,99.694,0,0,1-.709-10.555l-.028-1.53a59.248,59.248,0,0,1,.243-7.775c-.145.127-.294.256-.439.38-.261.225-.53.457-.795.7-1.643,1.484-3.1,2.793-4.451,4-2.626,2.348-5.747,5.113-8.982,7.815-6.188,5.169-11.414,9.185-16.447,12.641l-2.724,1.872a118.93,118.93,0,0,1-14.409,8.835c-2.764,1.355-6.884,3.024-9.742,4.078h0l0,.006a15.45,15.45,0,0,1,.987,1.8,10.641,10.641,0,0,1,.633,1.7,4.893,4.893,0,0,1,.185,1.746,2.127,2.127,0,0,1-.873,1.584,1.416,1.416,0,0,1-.825.29,2.017,2.017,0,0,1-1.447-.84,8.458,8.458,0,0,1-1.172-1.89,15.969,15.969,0,0,1-1.122-3.135c-1.285.429-4.958,1.466-4.995,1.476A28.315,28.315,0,0,0,27.1,221.845a.875.875,0,0,1-.537.263c-.207,0-.359-.163-.415-.446a2.554,2.554,0,0,1,.713-2,26.118,26.118,0,0,1,5.444-4.591,42.4,42.4,0,0,1,5.961-3.106l.2-.088c1.459-.637,2.965-1.322,4.474-2.037a15.791,15.791,0,0,1-.239-3c.026-1.524.091-3.076.153-4.577.036-.867.073-1.764.1-2.647.162-4.875.37-9.819.634-15.114.1-2.068.21-3.976.329-5.83-.267-.228-.525-.485-.775-.733h0a6.676,6.676,0,0,0-1.6-1.3l-.15-.07a1.161,1.161,0,0,1-.579-1.2c.025-.574.312-1.236.794-1.331a4.174,4.174,0,0,1,.806-.079,4.56,4.56,0,0,1,1.477.256,3.127,3.127,0,0,1,.333.137c.149-1.929.3-3.69.467-5.383.088-.895.172-1.816.254-2.706v-.008a100.725,100.725,0,0,1,1.5-11.511c.039-.183.158-.317.282-.317.094,0,.174.077.218.213a29.213,29.213,0,0,1,1.215,6.313c.214,2.214.285,4.49.354,6.691v.005c.012.386.025.786.037,1.174l.02.565c.163,4.536.207,9.472.137,15.534-.058,5.008-.164,10.226-.326,15.953-.013.465-.023.937-.033,1.393-.036,1.678-.074,3.412-.254,5.019,4.222-2.188,8.382-4.586,12.364-7.127,4.122-2.631,8.159-5.484,12-8.479C78,187.344,83.531,182.814,88.9,178.205c1.219-1.047,2.462-2.1,3.664-3.127l.011-.009.009-.008c1.469-1.25,2.989-2.543,4.479-3.828.868-.749,1.8-1.557,2.852-2.47l1.425-1.238c.154-.134.3-.268.451-.4a13.928,13.928,0,0,1,1.687-1.352,3.754,3.754,0,0,1,1.861-.646h.046a1.391,1.391,0,0,1,1.127.846,3.832,3.832,0,0,1,2.776-1.509h.035c1.793-3.949,3.28-7.107,4.68-9.939l1.188-2.41c2.029-4.1,4.231-8.374,6.859-11.546a16.67,16.67,0,0,1,3.8-3.347,1.988,1.988,0,0,1-.9-.778,8.73,8.73,0,0,1-1.156-3.253c-.238-1.258-.364-2.641-.475-3.862l0-.017c-.03-.324-.058-.631-.087-.932a33.37,33.37,0,0,1-.151-3.97c.023-1.182.1-2.442.252-3.964.06-.611.448-.931.8-.931a.735.735,0,0,1,.676.623c.189.685.385,1.371.574,2.034v0c.377,1.321.767,2.686,1.111,4.073l.153.628c.174.736.405,1.467.649,2.242v0a15.623,15.623,0,0,1,1.008,5.105,4.641,4.641,0,0,1-.394,1.792c.787-.417,1.594-.808,2.374-1.185h0c.318-.154.678-.328,1.021-.5,3.207-1.579,6.943-3.383,10.712-4.8.966-.362,1.941-.7,2.9-1a114.7,114.7,0,0,1,2.122-11.33,7.543,7.543,0,0,1-1.457-1.871c-.2-.312-.4-.635-.618-.943a14.9,14.9,0,0,1-1.176-2.135c-.165-.342-.336-.7-.516-1.039a2.707,2.707,0,0,1-.153-1.892c.152-.519.448-.816.813-.816h.044l.263.018a4.613,4.613,0,0,1,2.771.947l.311.256a10.992,10.992,0,0,1,1.311,1.237c.485-1.78,1.02-3.664,1.682-5.929l.742-2.53c.187-.64.377-1.294.561-1.926l.018-.06c1.724-5.925,3.506-12.05,5.679-17.568a10.184,10.184,0,0,1,1.911-3.269,4.279,4.279,0,0,1,2.643-1.422,13.331,13.331,0,0,1,1.706-.1c1,0,2.024.087,3.012.171.56.048,1.139.1,1.7.129,2.64.151,5.045.318,7.353.511-.284-.473-.56-.979-.827-1.467v0c-.323-.591-.658-1.2-1-1.752a52.028,52.028,0,0,0-3.315-4.712,43.96,43.96,0,0,0-7.458-7.33c-.678-.529-1.37-1.048-2.039-1.55a47.446,47.446,0,0,1-5.761-4.83A29.735,29.735,0,0,1,151,51.52a83.261,83.261,0,0,1-1.214,10.12,79.784,79.784,0,0,1-2.359,9.546,72.658,72.658,0,0,1-3.385,8.765,62.45,62.45,0,0,1-4.291,7.778,42.737,42.737,0,0,1-11.3,11.779,40.959,40.959,0,0,1-13.021,6.037,37.2,37.2,0,0,1-9.521,1.268,34.25,34.25,0,0,1-8.841-1.155,35.386,35.386,0,0,1-8.588-3.583,42.319,42.319,0,0,1-6.475-4.654,51.721,51.721,0,0,1-5.994-6.179,7.771,7.771,0,0,1-.19,1.167,10.042,10.042,0,0,1-.479,1.364l-.33.77c-.189.439-.411.946-.657,1.413a2.532,2.532,0,0,1-2.244,1.558H72.1a1.817,1.817,0,0,1-1.164-.459,3.515,3.515,0,0,1-.885-1.2,6.053,6.053,0,0,1-.441-3.557,5.989,5.989,0,0,1,.669-1.992,3.715,3.715,0,0,1,1.165-1.25c.3-.2.614-.376.91-.536l.23-.124a4.867,4.867,0,0,1,.935-.423,63.647,63.647,0,0,1-4.95-8.233c-1.266-2.517-2.41-5.073-3.4-7.6a75.562,75.562,0,0,1-2.8-8.582A49.284,49.284,0,0,1,60.843,45.1a.424.424,0,0,1,.276-.379,5.033,5.033,0,0,1,.776-2.267,4.7,4.7,0,0,0-.805-.257c-.81.289-1.618.54-2.231.726-.687.587-1.379,1.189-2.049,1.77-2.08,1.806-4.229,3.674-6.439,5.3a96.855,96.855,0,0,0-9.123,7.4,54.54,54.54,0,0,0-4.264,4.5,62.393,62.393,0,0,0-3.891,5.124c-1.225,1.795-2.414,3.727-3.535,5.745-1.11,2-2.186,4.139-3.2,6.363a204.486,204.486,0,0,0-9.183,24.547c-2.532,8.247-4.8,17.166-6.731,26.508-.946,4.567-1.81,9.277-2.569,14a13.678,13.678,0,0,1,4.7-4.227.921.921,0,0,1,.47-.129,2.03,2.03,0,0,1,1.6,1.474,3.744,3.744,0,0,1,.251,1.476c-.039,1.187-.524,2.579-1.347,2.821a25.183,25.183,0,0,0-4.584,2.074l-.021.011c-.319.17-.648.346-.971.514a.67.67,0,0,1-.31.083.586.586,0,0,1-.4-.164,327.728,327.728,0,0,0-3.357,37.4,317.762,317.762,0,0,0,.611,32.072,7.678,7.678,0,0,1,1.751-1.022,20.649,20.649,0,0,0,2.4-1.079,1.258,1.258,0,0,1,.582-.156,1.409,1.409,0,0,1,1.172.846,5.019,5.019,0,0,1,.309,3.816,1.955,1.955,0,0,1-1.073,1.216,19,19,0,0,1-2.623.83,3.778,3.778,0,0,1-.871.1A5.14,5.14,0,0,1,4.859,221.951ZM155.588,131.1a30.189,30.189,0,0,0-9.438,1.694,79.316,79.316,0,0,0-9.2,3.838l-1.377.658c-2.825,1.356-5.188,2.534-7.536,3.88-2.661,1.524-4.907,3.925-7.069,7.555-.685,1.15-1.373,2.324-2.037,3.458-1.542,2.632-3.137,5.354-4.782,7.927-1.341,2.1-2.813,4.341-4.5,6.86a9.652,9.652,0,0,0-.806,2.471,18.8,18.8,0,0,0-.126,4.979c.131,1.879.22,3.8.306,5.653.114,2.459.231,5,.449,7.483a67.105,67.105,0,0,0,1.9,11.959,27.293,27.293,0,0,0,1.574,4.239l.5,1.031c.206.426.453.926.715,1.4.365-.709.845-1.1,1.353-1.1a1.041,1.041,0,0,1,.192.018,7.652,7.652,0,0,0,1.417.145,6.365,6.365,0,0,0,2.282-.444c.672-.251,1.353-.535,2.01-.809h0c.316-.132.673-.281,1.02-.422.555-.226,1.115-.447,1.658-.662,1.414-.559,2.875-1.137,4.293-1.806l.338-.162a14.864,14.864,0,0,0,2.165-1.263,9.961,9.961,0,0,0,1.981-1.856,13.176,13.176,0,0,0,1.909-3.958,25.659,25.659,0,0,1,.99-2.5,7.736,7.736,0,0,1,3.414-3.571,18.6,18.6,0,0,1,4.292-1.485,23.325,23.325,0,0,0,2.645-.786,16.073,16.073,0,0,0,4.015-2.208,13.342,13.342,0,0,0,3.373-3.809l.112-.192A1.789,1.789,0,0,1,154,177.8l.073-.065a.579.579,0,0,1,.391-.16h.018c.207-.485.369-.9.508-1.311.04-.116.1-.181.175-.181a.228.228,0,0,1,.181.143.546.546,0,0,1,.053.312c-.021.189-.05.377-.078.559v0l-.015.1a10.955,10.955,0,0,1,4.19-.629c.288,0,.582,0,.841.006.242,0,.515.006.778.006l2.458-.014a6.521,6.521,0,0,0,1.116-.083l.058-.041.051-.034.006,0h0l-.005,0-.015,0a.02.02,0,0,1-.021-.015.19.19,0,0,1,.029-.109c.111-.234.224-.482.348-.758.354-.79.715-1.65,1.171-2.79a72.057,72.057,0,0,1-12.585,3.58c-2.449.506-4.673.878-6.8,1.139a56.4,56.4,0,0,1-6.83.446h0a.791.791,0,0,1-.695-.458,2.173,2.173,0,0,1-.24-1.02,2.344,2.344,0,0,1,.228-1.084.866.866,0,0,1,.709-.53,101.942,101.942,0,0,0,14.4-1.684c2.4-.493,4.883-1.132,7.39-1.9.934-.284,1.887-.593,2.832-.917l.706-.246c.092-.032.224-.069.364-.108a4.315,4.315,0,0,0,1.94-.925l.061-.167c.092-.252.2-.538.3-.818a.928.928,0,0,0-.708-.845,3.592,3.592,0,0,0-1.2-.161c-.089,0-.169,0-.243,0H165.9l-.141,0h-.392c-.658,0-1.327,0-1.974.009l-1.3.008-1,0c-1.97,0-3.973-.026-5.91-.05h-.017l-.408-.005c-1.249-.016-2.521-.047-3.75-.076H151c-1.823-.044-3.709-.089-5.562-.089-1.993,0-3.741.053-5.342.162l-.046,0c-.632,0-1.075-.878-1.186-1.745a2.12,2.12,0,0,1,.6-2c4.592-3.125,9.665-4.083,14.57-5.009h.007c.605-.114,1.231-.232,1.843-.352a46.716,46.716,0,0,0,8.641-2.375l.7-.284a13.029,13.029,0,0,0,5.25-3.351,8.006,8.006,0,0,0-2.926-1.1,23.823,23.823,0,0,0-3.062-.3h0c-.489-.027-.951-.052-1.4-.092l-.179-.017c-3.258-.319-6.566-.485-9.832-.492h-.382c-5.69,0-11.778.269-19.743.872h-.007c-.084,0-.13-.111-.137-.215s.023-.224.105-.253a66.754,66.754,0,0,1,10.41-2.7,71.907,71.907,0,0,1,10.531-1.032c.863-.022,1.738-.033,2.6-.033,2.407,0,4.846.086,7.249.256l1.2.089.426.028.049,0a18.855,18.855,0,0,1,4.056.565,7.545,7.545,0,0,1,3.71,2.34,2.433,2.433,0,0,1,.574,1.489c2.843-9.036,5.529-18.378,8.126-27.413l.116-.4.706-2.455c.761-2.645,1.525-5.343,2.264-7.952v0c1.458-5.146,2.965-10.466,4.521-15.645l.759-2.524c1.138-3.772,2.121-6.913,3.214-9.984-3.918-.835-8.178-1.506-13.024-2.051-3.1-.349-11.617-1.029-16.179-1.029a11.5,11.5,0,0,0-2.631.183,3.941,3.941,0,0,0-2.111,2.314,28.07,28.07,0,0,0-1.352,3.836c-.157.524-.305,1.019-.457,1.479-2.068,6.3-4.009,12.825-5.885,19.135v0l-.169.57c-.464,1.56-.926,3.152-1.372,4.691l-.013.043-.406,1.4a4.246,4.246,0,0,1-.138.474c-1.359,4.664-2.549,8.542-3.942,12.312,1.384-.413,2.745-.753,4.048-1.012a20.456,20.456,0,0,1,.965-5.438c.1-.369.194-.716.272-1.029l.036-.144c.087-.354.174-.738.266-1.145.473-2.09,1.061-4.689,2.224-5.643a.52.52,0,0,1,.33-.133.553.553,0,0,1,.449.288,1.519,1.519,0,0,1,.213.751,14.335,14.335,0,0,1-1.47,5.618v0c-.233.57-.453,1.108-.629,1.607-.451,1.277-.882,2.536-1.281,3.745-.053.161-.1.321-.152.475-.1.309-.189.6-.294.874.816-.14,1.483-.237,2.1-.306l.457-.05a22.15,22.15,0,0,1,2.278-.142,9.557,9.557,0,0,1,2.8.372,7.056,7.056,0,0,1,2.638,1.463,7.853,7.853,0,0,1,2.315,4.143,10.331,10.331,0,0,1,.266,2.693,10.084,10.084,0,0,1-.484,2.793,7.291,7.291,0,0,1-3.309,4.369,11.745,11.745,0,0,1-4.357,1.2c-3.48.447-7.012,1.253-10.427,2.032l-.381.087a34.08,34.08,0,0,0-6.072,2.246,43.552,43.552,0,0,1-4.774,1.9.227.227,0,0,1-.067.01c-.145,0-.273-.157-.313-.382a.6.6,0,0,1,.14-.535,31.291,31.291,0,0,1,8.67-5.449c.305-.147.621-.3.93-.45l.26-.127c.363-.178.73-.364,1.085-.543a22.37,22.37,0,0,1,4.175-1.774c1.747-.469,3.526-.853,5.287-1.143l.172-.025c.215-.029.472-.054.743-.08a14.132,14.132,0,0,0,2.991-.524,4.118,4.118,0,0,0,2.512-1.873,4.3,4.3,0,0,0,.46-2.292,3.3,3.3,0,0,0-1.85-2.929,6.7,6.7,0,0,0-2.807-.675C155.964,131.107,155.775,131.1,155.588,131.1Zm9.332,32.78a6.093,6.093,0,0,1,3.318.726,3.123,3.123,0,0,1,.808.745c1.314-3.724,2.608-7.585,3.956-11.8a10.858,10.858,0,0,1-3.116,3.341,22.983,22.983,0,0,1-3.575,1.995,40.191,40.191,0,0,1-8.454,2.733c-.758.171-1.514.337-2.245.5-1.954.429-3.975.873-5.945,1.391.666.013,1.344.025,2,.036,1.358.023,2.761.048,4.141.087,2.708.078,4.954.16,7.069.258.176.008.37.012.593.012s.477,0,.711-.008h.014C164.431,163.889,164.675,163.884,164.92,163.884Zm-3.047,139.05a1.977,1.977,0,0,1-1.587-.954,4.79,4.79,0,0,1-.75-2.66,19.834,19.834,0,0,1,.889-6,14.13,14.13,0,0,1,2.422-4.84.752.752,0,0,1,.569-.313c.545,0,1.032.757,1.214,1.47a21.806,21.806,0,0,1-.774,11.552C163.4,302.3,162.681,302.935,161.873,302.935Zm11.891-.435c-.372,0-.675-.374-.809-1a76.841,76.841,0,0,1-1.229-10.65v0c-.05-.73-.1-1.485-.158-2.223-.268-3.589-.446-7.258-.618-10.807q-.032-.664-.064-1.329l-.06-1.214c-.447-8.969-.8-17.964-1.059-26.735-.254-8.731-.415-17.738-.478-26.77-.027-3.912.011-8.009.113-12.178l.032-1.216c.026-.959.043-1.946.058-2.9a79.7,79.7,0,0,1,.56-9.78c.035-.241.169-.326.275-.326s.244.1.277.326a82.317,82.317,0,0,1,.636,9.3V205c.03.964.061,1.962.1,2.928l.02.448c.22,4.793.383,9.174.5,13.394.231,8.445.509,17.065.85,26.352.159,4.323.332,8.717.514,13.059a14.57,14.57,0,0,1,1.773-1.35,4.449,4.449,0,0,1,2.559-.643l.232,0a1.812,1.812,0,0,1,1.479,1.089,4.534,4.534,0,0,1,.463,2.482,3.652,3.652,0,0,1-.7,2.006,1.694,1.694,0,0,1-1.335.669,1.8,1.8,0,0,1-.434-.055c-.483-.121-.975-.268-1.45-.411a19.07,19.07,0,0,0-2.451-.62c.161,3.727.31,7.027.456,10.09.093,1.962.2,3.948.3,5.868.132,2.451.269,4.986.377,7.481.017.386.036.8.059,1.277a8.931,8.931,0,0,1,2.325-1.289l.221-.1.244-.109.329-.153a5.373,5.373,0,0,1,2.144-.674,2.056,2.056,0,0,1,1.607.8,3.249,3.249,0,0,1,.743,1.885,3.649,3.649,0,0,1-.428,2.007,2.7,2.7,0,0,1-2.643,1.58c-.33,0-.669-.03-1-.059-.146-.013-.312-.027-.469-.038l-.791-.046a6.112,6.112,0,0,1-2.122-.423,71.718,71.718,0,0,1-.03,8.671C174.618,302.027,174.17,302.5,173.763,302.5ZM58.581,298.235a2.329,2.329,0,0,1-1.359-.492,9.495,9.495,0,0,1-2.686-3.613l-.212-.429-.023-.047a7.771,7.771,0,0,1-.8-2.1,10.342,10.342,0,0,1-.029-2.278l0-.029.007-.113a2.166,2.166,0,0,1,.2-.8c.091-.181.246-.4.47-.4a.356.356,0,0,1,.072.007,3.969,3.969,0,0,0,.543.061,3.353,3.353,0,0,1,.641.084,2.652,2.652,0,0,1,.916.559,5.516,5.516,0,0,0,.485.363,9.874,9.874,0,0,0,1.473.727c.31.132.631.269.939.425a3.643,3.643,0,0,1,1.662,2.3,6.271,6.271,0,0,1,.024,3.3,4.1,4.1,0,0,1-.965,1.868A1.907,1.907,0,0,1,58.581,298.235Zm75.832-9.861c-1.377,0-2.639-1.272-3.86-2.5l0,0c-.273-.275-.531-.535-.791-.782l-.088-.082c-.21-.2-.424-.391-.631-.579l0,0a20.858,20.858,0,0,1-2.021-2.02,9.943,9.943,0,0,1-1.641-2.753,2.283,2.283,0,0,1-.02-1.36c.114-.394.313-.649.546-.7a3.964,3.964,0,0,1,.867-.1,8.243,8.243,0,0,1,3.9,1.424l.02.011.376.21.139.077c.324.178.672.345,1.04.52h0c1.6.767,3.424,1.637,4.154,3.96a5.291,5.291,0,0,1,.047,2.932,2.273,2.273,0,0,1-1.2,1.582A2.238,2.238,0,0,1,134.413,288.375ZM101.25,272.218c-1.031,0-2.046-1.023-2.584-2.606a6.91,6.91,0,0,1-.363-2.181,5.869,5.869,0,0,1,.418-2.245,8.035,8.035,0,0,1,2.162-3.039,17.336,17.336,0,0,1,2.731-1.874h0c.213-.126.433-.257.645-.387a34.026,34.026,0,0,0,4.761-3.774l.01-.009.615-.547a.685.685,0,0,1,.454-.2c.372,0,.724.391.876.973a2.026,2.026,0,0,1-.2,1.558l-1.124,1.792a49.987,49.987,0,0,0-2.951,5.263l-.216.466-.218.475-.011.025a33.678,33.678,0,0,1-1.851,3.649,6.335,6.335,0,0,1-2.383,2.469A1.73,1.73,0,0,1,101.25,272.218Zm-73.1-12.84a2.549,2.549,0,0,1-2.044-1.3,5.437,5.437,0,0,1-.758-2.541,8.161,8.161,0,0,1,.327-2.783A12.8,12.8,0,0,1,28.01,248.7c.356-.471.691-.917,1-1.378l.1-.152c.43-.666.878-1.268,1.311-1.85a19.929,19.929,0,0,0,2.19-3.429.9.9,0,0,1,.787-.586.844.844,0,0,1,.75.551,1.772,1.772,0,0,1,.054,1.1c-.3,1.292-.55,2.676-.815,4.141a64.674,64.674,0,0,1-1.4,6.493,13.478,13.478,0,0,1-2.53,5.166A1.7,1.7,0,0,1,28.155,259.378Zm128.16-.373a1.709,1.709,0,0,1-1.281-.664,4.141,4.141,0,0,1-.815-1.642,5.949,5.949,0,0,1-.174-2.066,4.743,4.743,0,0,1,.625-2,12.809,12.809,0,0,1,4.206-3.927l.013-.009c.251-.17.512-.346.76-.52l.394-.279a6.317,6.317,0,0,1,2.987-1.149,1.289,1.289,0,0,1,1.265.72.949.949,0,0,1,.089.185,2.608,2.608,0,0,1,0,1.734,19.051,19.051,0,0,1-3.027,5.148l-.139.165c-.257.3-.515.618-.765.924a10.714,10.714,0,0,1-3.507,3.24A1.588,1.588,0,0,1,156.315,259.005ZM75.4,227.935a1.816,1.816,0,0,1-1.132-.461,15.739,15.739,0,0,1-3.452-3.938,26.4,26.4,0,0,1-2.528-5.452,1.939,1.939,0,0,1,.018-1.287c.151-.409.415-.663.688-.663a.576.576,0,0,1,.4.188,24.037,24.037,0,0,0,6.633,4.5,2.831,2.831,0,0,1,1.208,1.316,4.54,4.54,0,0,1,.469,2.194l-.01.242a3.82,3.82,0,0,1-1.211,2.9A1.61,1.61,0,0,1,75.4,227.935Zm58.885-1.523a3.571,3.571,0,0,1-2.385-1.473,19.874,19.874,0,0,1-1.975-2.757l-.055-.088a19.608,19.608,0,0,1-1.671-3.379,16.174,16.174,0,0,1-.945-3.965.96.96,0,0,1,.083-.542.332.332,0,0,1,.287-.2.312.312,0,0,1,.089.014,8.151,8.151,0,0,1,2.462,1.3,18.555,18.555,0,0,1,2.281,2.041c.412.424.822.878,1.219,1.316.361.4.734.811,1.107,1.2a4.7,4.7,0,0,1,1.046,1.532,7.181,7.181,0,0,1,.427,2.164,3.125,3.125,0,0,1-.358,1.67,2.394,2.394,0,0,1-.921,1.006A1.5,1.5,0,0,1,134.286,226.412Zm51.021-3a3.081,3.081,0,0,1-2.067-1.161,11.839,11.839,0,0,1-1.656-2.305l-.08-.145c-.13-.24-.262-.475-.4-.724a19.574,19.574,0,0,1-1.554-3.236,34.735,34.735,0,0,1-.882-3.391v0c-.067-.3-.136-.6-.2-.9a2.5,2.5,0,0,1,.126-1.553,1.367,1.367,0,0,1,1.125-.929.827.827,0,0,1,.576.244c.3.277.6.541.9.8a15.162,15.162,0,0,1,1.594,1.5c.464.529.909,1.131,1.339,1.714.232.314.471.638.714.95l.339.428a12.277,12.277,0,0,1,1.458,2.476,8.142,8.142,0,0,1,.779,3.189,3.557,3.557,0,0,1-.7,2.244A1.784,1.784,0,0,1,185.307,223.411ZM157.847,203.2H157.8a1.851,1.851,0,0,1-1.642-1.084,5.373,5.373,0,0,1-.6-3.6,23.886,23.886,0,0,1,1.6-4.788,11.017,11.017,0,0,1,2.512-3.6.7.7,0,0,1,.464-.184c.372,0,.814.336.906,1.073.024.194.053.4.082.591a11.991,11.991,0,0,1,.163,1.671,13.4,13.4,0,0,1-.194,1.925v.005c-.04.271-.079.528-.11.782a23.652,23.652,0,0,1-1.178,5.38A2.421,2.421,0,0,1,157.847,203.2ZM60.363,191.377a7.4,7.4,0,0,1-4.91-2.268,2.361,2.361,0,0,1-.379-2.305,11.647,11.647,0,0,1,1.069-2.209,10.627,10.627,0,0,1,1.452-1.862,5.109,5.109,0,0,1,3.424-1.766,2.8,2.8,0,0,1,.331.02A2.985,2.985,0,0,1,63.5,182.5a6.8,6.8,0,0,1,.921,3.034,7.557,7.557,0,0,1-.411,3.183,4.039,4.039,0,0,1-1.82,2.227A3.876,3.876,0,0,1,60.363,191.377Zm-32.1-4.493a1.538,1.538,0,0,1-.608-.128c-1.792-.767-3.552-2.661-5.1-4.332l-.024-.026-.323-.347-.3-.321-.12-.126a13.6,13.6,0,0,1-1.947-2.386,23.463,23.463,0,0,1-1.323-2.786c-.089-.21-.181-.428-.272-.637a1,1,0,0,1-.029-.71c.092-.278.293-.473.489-.473a.306.306,0,0,1,.1.017c.333.117.682.209,1.02.3a8.963,8.963,0,0,1,1.629.548,12.172,12.172,0,0,1,1.446.885c.367.248.747.505,1.124.716a24.633,24.633,0,0,0,2.273,1.075,17.693,17.693,0,0,1,3.2,1.652,2.89,2.89,0,0,1,.877,1.379,5.14,5.14,0,0,1,.305,1.9l-.016.277a5.364,5.364,0,0,1-.309,1.642C29.9,186.165,29.1,186.884,28.261,186.884Zm61.022-12.657c-.51,0-1.078-.417-1.689-1.24a11.86,11.86,0,0,1-1.241-2.193,28.589,28.589,0,0,1-1.9-6.719A1.806,1.806,0,0,1,84.57,163a.815.815,0,0,1,.677-.528.681.681,0,0,1,.553.35c.484.719.985,1.427,1.47,2.112.674.952,1.371,1.937,2.03,2.962l.076.12a10.071,10.071,0,0,1,1.168,2.6,3.582,3.582,0,0,1-.232,2.887A1.267,1.267,0,0,1,89.283,174.227ZM62.913,137.738a2.16,2.16,0,0,1-1.69-1.112,6.079,6.079,0,0,1-.919-2.531,5.749,5.749,0,0,1,.112-2.285,3.161,3.161,0,0,1,1.134-1.763,40.464,40.464,0,0,1,5.568-3.6c.323-.163.643-.337.952-.5a8.255,8.255,0,0,1,3.8-1.345,3.838,3.838,0,0,1,.621.05.865.865,0,0,1,.616.638,1.567,1.567,0,0,1-.025,1,14.49,14.49,0,0,1-3.189,4.93l-.006.007c-.2.228-.406.465-.609.7l-.127.15a51.15,51.15,0,0,1-4.985,5.109A1.893,1.893,0,0,1,62.913,137.738Zm44.832-10.561a1.353,1.353,0,0,1-.689-.211c-2.5-1.485-5.184-3.065-7.895-4.554a1.652,1.652,0,0,1-.55-1.566c.049-.468.259-.968.7-.968h.012l.051,0c2.83.3,5.625.492,8.225.66a1.811,1.811,0,0,1,1.51,1.058,4.66,4.66,0,0,1,.446,2.18C109.536,125.449,108.852,127.177,107.745,127.177Zm-72.66-10.463h0l-.091,0c-1.925-.113-3.591-1.336-5.5-3.139a11.175,11.175,0,0,1-1.9-2.409,29.361,29.361,0,0,1-1.538-3.016,1.312,1.312,0,0,1-.063-.9.979.979,0,0,1,.654-.743c.354-.058.715-.145,1.064-.229a11.193,11.193,0,0,1,1.366-.271,2.589,2.589,0,0,1,.287-.015,6,6,0,0,1,1.221.172c.207.044.421.089.631.121l.757.117a10.343,10.343,0,0,1,4.512,1.565,3.335,3.335,0,0,1,1.26,1.958,7.645,7.645,0,0,1-.819,5.537A2.269,2.269,0,0,1,35.084,116.714ZM161.827,105.5a1.287,1.287,0,0,1-.851-.351,2.992,2.992,0,0,1-.729-1.066,7.371,7.371,0,0,1-.563-2.1,9.907,9.907,0,0,1,0-2.166,18.625,18.625,0,0,1,1.009-4.186l.267-.765a22.846,22.846,0,0,1,1.733-3.978l.012-.118a4.7,4.7,0,0,1,.734-2.362,1.636,1.636,0,0,1,1.3-.757A1.841,1.841,0,0,1,166.3,88.76a4.958,4.958,0,0,1,.433,2.874,42.136,42.136,0,0,1-1.174,6.535,36.38,36.38,0,0,1-2.108,5.911C163.031,104.98,162.441,105.5,161.827,105.5ZM54.594,78.477a1.951,1.951,0,0,1-1.446-.687,3.6,3.6,0,0,1-.816-2.042l-.04-.358-.035-.3a13.915,13.915,0,0,1-.092-3.92,16.819,16.819,0,0,1,.76-2.627l0,0c.047-.135.1-.275.142-.41l.069-.2A19.72,19.72,0,0,1,54.357,65.1a22.943,22.943,0,0,1,1.5-2.475,1.188,1.188,0,0,1,.948-.565,1.023,1.023,0,0,1,.762.368,2.088,2.088,0,0,1,.454,1.107,31.652,31.652,0,0,1,.3,7.026c-.025.275-.046.564-.067.842a16.663,16.663,0,0,1-.388,2.916A10.364,10.364,0,0,1,56.4,77.3l-.081.128A2.076,2.076,0,0,1,54.594,78.477Zm101.527-4.434c-.828,0-1.442-.822-2.091-1.693l-.1-.138a8.627,8.627,0,0,0-2.244-2.106,1.845,1.845,0,0,1-.589-1.707c.059-.492.305-1.018.819-1.018h0l.247,0a7.406,7.406,0,0,1,3.415.892,4.008,4.008,0,0,1,2,3.665A2.992,2.992,0,0,1,157.3,73.2a1.378,1.378,0,0,1-.688.748A1.429,1.429,0,0,1,156.121,74.043Z" transform="translate(12.734 -8.458)"/>
      </g>
      <g id="head_Afro" data-name="head/Afro" transform="translate(239.5 294)">
        <path id="_Skin-2" data-name="âœ‹ Skin" d="M142.037.354C283.694-6.758,347.618,95.067,351.753,140.547c2.87,31.57-15.4,67.959-15.4,96.169,0,14.4,17.27,45.314,9.23,66.3-17.894,46.714-55.783,98.558-104.065,98.558S130.4,415.207,77.051,337.223c-5.006-7.317-68.319-48.9-74.47-88.421C-12.74,150.368,40.959,5.429,142.037.354Z" transform="translate(40.579 78.527)" fill="#d08b5b"/>
        <path id="_Ink-2" data-name="ðŸ– Ink" d="M309.35,479.239a146.453,146.453,0,0,1-14.922-.851,222.209,222.209,0,0,1-35.889-6.24l-1.885-.512c-4.864-1.33-9.966-2.853-14.19-5.537a17.048,17.048,0,0,1-5.481-5.611,23.039,23.039,0,0,1-2.761-7.442,5.716,5.716,0,0,1,1.045-4.6,4.456,4.456,0,0,1,3.474-1.744h.209c.126,0,.257,0,.39,0,.52,0,1.072-.02,1.738-.062l.538-.037h.027a.293.293,0,0,1,.093-.01c.164-.024.327-.062.485-.1.139-.032.3-.069.45-.092a16.756,16.756,0,0,1,2.828-.243,21.973,21.973,0,0,1,7.22,1.377l.42.145a164.223,164.223,0,0,0,17.075,5.191c5.794,1.348,11.935,2.49,18.253,3.4l.608.076.187.028.093.009a.111.111,0,0,1,.056.01l1.8.228c1.425.172,2.863.327,4.253.476h.009c2.6.265,5.24.477,7.85.629,1.514.087,3.047.131,4.558.131a80.017,80.017,0,0,0,30.709-6.175,92.438,92.438,0,0,0,26.321-16.738,111.975,111.975,0,0,0,32.966-54.455,116.9,116.9,0,0,0,3.614-23.607,177.161,177.161,0,0,0-.417-23.585,11.487,11.487,0,0,1-.617-3.807c0-.745.04-1.481.084-2.166-.806-8.051-1.946-16.243-3.048-24.165-.981-7.052-2-14.344-2.775-21.53a412.359,412.359,0,0,1-2.617-53.718,228.089,228.089,0,0,1,2.336-26.42l.44-3.153a29.647,29.647,0,0,1-7.865-2.768,29.949,29.949,0,0,1-6.8-4.833,29.637,29.637,0,0,1-7.236,3.053,29.3,29.3,0,0,1-7.724,1.045,26.137,26.137,0,0,1-13.984-3.928,32.774,32.774,0,0,1-17.485,5,29.712,29.712,0,0,1-15.73-4.292,27.135,27.135,0,0,1-7.317,3.8,25.316,25.316,0,0,1-8.1,1.343,24.558,24.558,0,0,1-5.351-.591,23.748,23.748,0,0,1-9.4-4.55,26.782,26.782,0,0,1-4.73.43c-.444,0-.894-.012-1.337-.036l-.418.239a30.356,30.356,0,0,1-14.335,3.991c-.269,0-.542,0-.811-.014a35.277,35.277,0,0,1-11.747-2.428,32.917,32.917,0,0,1-13.095,4.763,29.675,29.675,0,0,1-3.775.24,28.511,28.511,0,0,1-16.185-4.877,40.434,40.434,0,0,1-20.32,5.4,41.5,41.5,0,0,1-14.169-2.477,32.26,32.26,0,0,1-9.225,10.066,21.516,21.516,0,0,1,.652,7.559,31.244,31.244,0,0,1-3.047,11.147,20.326,20.326,0,0,1,1.294,12.837,31.753,31.753,0,0,1-9.92,16.61,31.662,31.662,0,0,1-4.3,14.661,30.922,30.922,0,0,1-10.809,10.922,12.379,12.379,0,0,1-1.375.7,6.859,6.859,0,0,1-1.431,1.471,16.512,16.512,0,0,1-11.6,4.2,27.388,27.388,0,0,1-10.588-2.257l-.156.009h-.01c-.078.005-.167.011-.255.012s-.158,0-.237,0a5.957,5.957,0,0,1-5.166-2.484,23.768,23.768,0,0,0-3.158.373,43.324,43.324,0,0,0-11.562,3.979,25.978,25.978,0,0,0-5.9,4.216,25.2,25.2,0,0,0-4.262,5.4,35.209,35.209,0,0,0-4.32,13.625,37.907,37.907,0,0,0,1.4,16.176,31.7,31.7,0,0,0,3.4,7.274,29.7,29.7,0,0,0,5.289,6.233,27.522,27.522,0,0,0,6.8,4.427,31.863,31.863,0,0,0,7.712,2.424,21.716,21.716,0,0,0,3.855.288c.6,0,1.216-.013,1.807-.025h.031c.585-.012,1.191-.025,1.778-.025a16.154,16.154,0,0,1,4.749.561,8.572,8.572,0,0,1,4.127,2.76,4.045,4.045,0,0,1,.981,3.789,9.782,9.782,0,0,1-2.946,4.613,9.477,9.477,0,0,1-4.67,1.865,214.354,214.354,0,0,0,17.169,18.835c1.3,1.243,2.622,2.5,3.905,3.716l.049.046a210.594,210.594,0,0,1,15.636,15.9,130.979,130.979,0,0,1,8.941,11.63,81.445,81.445,0,0,1,7.161,12.825c1.747,3.99,3.255,8.145,4.714,12.163l0,.007c.446,1.228.907,2.5,1.368,3.745l.352.93c.243.626.5,1.259.746,1.871a34.057,34.057,0,0,1,2.385,7.493,12.257,12.257,0,0,1,.008,3.8,11.359,11.359,0,0,1-1.4,3.887,9.426,9.426,0,0,1-2.772,2.933,6.853,6.853,0,0,1-3.8,1.315,4.726,4.726,0,0,1-.621-.041c-8.056-1.051-10.641-6.771-12.972-13.577-.79-2.311-1.51-4.687-2.207-6.985-.922-3.039-1.875-6.182-3-9.207-.342-.91-.732-1.868-1.193-2.927a14.844,14.844,0,0,1-4.064.558,17.766,17.766,0,0,1-9.56-2.941,32.381,32.381,0,0,1-13.251,2.866c-.181,0-.365,0-.548,0a32.639,32.639,0,0,1-8.9-1.377,30.916,30.916,0,0,1-7.894-3.681l-.228-.061-.054-.015-.015,0c-.286-.076-.581-.155-.87-.24a25.889,25.889,0,0,1-9.461,1.795,23.221,23.221,0,0,1-13.407-4.118,24.586,24.586,0,0,1-9.03-11.655,23.413,23.413,0,0,1-8.217-1.625,20.369,20.369,0,0,1-7.02-4.6,22.716,22.716,0,0,1-4.4-6.319,24.278,24.278,0,0,1-2.108-7.276,23.921,23.921,0,0,1-6.958-2.557,22.971,22.971,0,0,1-6-4.844,21.645,21.645,0,0,1-3.585-5.644,24.236,24.236,0,0,1-1.811-6.457,24.828,24.828,0,0,1-8.19-4.158,21.65,21.65,0,0,1-5.944-6.983,21.364,21.364,0,0,1-2.4-7.869,21.934,21.934,0,0,1,.624-7.818l-.342-.5a22.681,22.681,0,0,1-7.7-6.451,18,18,0,0,1-3.5-9.712,19.124,19.124,0,0,1,.669-6.375,19.532,19.532,0,0,1,.513-6.791,29.047,29.047,0,0,1-5.121-6.9,30.735,30.735,0,0,1-2.961-8.073,29.954,29.954,0,0,1-.6-8.573,27.514,27.514,0,0,1,1.976-8.4A29.747,29.747,0,0,1,2.7,265.88a28.982,28.982,0,0,1,.14-8.825,25.93,25.93,0,0,1,2.933-8.33,25.637,25.637,0,0,1-4.506-8.349,27.12,27.12,0,0,1-1.233-9.694,35.2,35.2,0,0,1,2.836-11.916,63.6,63.6,0,0,1,5.912-10.707,19.98,19.98,0,0,1-3.825-6.61,21.574,21.574,0,0,1-1.2-7.6,24.413,24.413,0,0,1,2.7-10.339,39.078,39.078,0,0,1,6.182-8.744,31.794,31.794,0,0,1-1.54-9.888,32.583,32.583,0,0,1,1.5-9.646,33.214,33.214,0,0,1,4.23-8.748,32.76,32.76,0,0,1,6.651-7.193A18.542,18.542,0,0,1,21.291,127a19.961,19.961,0,0,1,4.648-9.9,39.337,39.337,0,0,1,8.343-7.234,18.449,18.449,0,0,1,1.093-13.243,22.682,22.682,0,0,1,5.614-7.389,45.758,45.758,0,0,1,7.592-5.349A21.345,21.345,0,0,1,50.8,76.49a23.514,23.514,0,0,1,4.539-6.2,21.476,21.476,0,0,1,6.153-4.263,17.033,17.033,0,0,1,7.059-1.586,15.343,15.343,0,0,1,7.6,2.02,13.855,13.855,0,0,1-.367-6.554,16.761,16.761,0,0,1,2.438-6.093,19.681,19.681,0,0,1,5.734-5.786,17.512,17.512,0,0,1,7.58-2.816,29.337,29.337,0,0,1,4.543-8.681,32.1,32.1,0,0,1,25.062-12.667,27.731,27.731,0,0,1,6.665.806,28.641,28.641,0,0,1,10.5-8.9,29.757,29.757,0,0,1,13.192-3.1,28.533,28.533,0,0,1,10.145,1.843,44.846,44.846,0,0,1,13.395-7.245,45.608,45.608,0,0,1,14.526-2.33A53.551,53.551,0,0,1,206.78,7.88,21.4,21.4,0,0,1,215.55,1.9a29.976,29.976,0,0,1,10.6-1.9c.616,0,1.236.019,1.844.055,5.465.331,10.659,2.233,15.681,4.072,5.11,1.871,10.393,3.807,15.937,4.067.708.033,1.443.05,2.186.05a99.2,99.2,0,0,0,12.728-1.1l.024,0A99.01,99.01,0,0,1,287.222,6.05a40.25,40.25,0,0,1,6.561.5,34.144,34.144,0,0,1,10.262,3.4,26.332,26.332,0,0,1,8.355,6.762A37.849,37.849,0,0,1,323.022,15.2a38.947,38.947,0,0,1,9.133,1.094A40.224,40.224,0,0,1,340.8,19.47a41.2,41.2,0,0,1,14.349,12,23.389,23.389,0,0,1,3.648-.284,27.559,27.559,0,0,1,15.876,5.3A26.653,26.653,0,0,1,384.681,50a31.915,31.915,0,0,1,11.4,2.558,35.431,35.431,0,0,1,9.93,6.333A32.618,32.618,0,0,1,416.9,79.469,25.205,25.205,0,0,1,431.935,91.4c3.4,5.918,4.648,13.152,3.823,22.117a20.368,20.368,0,0,1,8.448,8.588,33.748,33.748,0,0,1,3.654,12.259,21.573,21.573,0,0,1,7.187,10.194,26.705,26.705,0,0,1,1.1,12.877,14.714,14.714,0,0,1,5.843,6.821,22.434,22.434,0,0,1,1.952,9.218c-.008,1.7-.145,3.347-.278,4.945-.321,3.879-.625,7.542.858,11.457a29.54,29.54,0,0,1,1.846,7.035,22.7,22.7,0,0,1-.331,7.211l-.105.5c-.172.8-.326,1.6-.473,2.453a14.969,14.969,0,0,1,3.462,4.64,23.393,23.393,0,0,1,2.279,10.469,31.4,31.4,0,0,1-1.993,10.54,21.409,21.409,0,0,1-.654,12.98,24.163,24.163,0,0,1,3.342,7.238,23.469,23.469,0,0,1,.755,8.136,25.3,25.3,0,0,1-7.564,16.01,27.624,27.624,0,0,1-1.483,12.854,29.084,29.084,0,0,1-6.95,10.957,22.963,22.963,0,0,1-2.624,15.337,20.9,20.9,0,0,1-7.623,7.831,25.674,25.674,0,0,1-1.21,8.7,28,28,0,0,1-6.362,10.815,24.4,24.4,0,0,1-.215,8.48,25.545,25.545,0,0,1-3.018,7.954A22.122,22.122,0,0,1,422.4,370.4a11.611,11.611,0,0,1-2.789.4,124.588,124.588,0,0,1-7.553,31.536,131.2,131.2,0,0,1-8.893,18.611,128.486,128.486,0,0,1-11.682,16.908,122.5,122.5,0,0,1-14.224,14.715,115.073,115.073,0,0,1-16.52,12.032,106.021,106.021,0,0,1-18.325,8.693,102.114,102.114,0,0,1-19.6,4.979A90.146,90.146,0,0,1,309.35,479.239ZM127.764,323.547a5.042,5.042,0,0,1-4.723-3.118,36.983,36.983,0,0,0-4.514-7.672c-.3.426-.564.867-.871,1.4l-.278.483-.054.092c-.188.323-.382.656-.544,1a7.006,7.006,0,0,1-.238.874c-.019.061-.031.1-.033.108a7.24,7.24,0,0,1-4.719,4.723,4.433,4.433,0,0,1-1.493.263,4.949,4.949,0,0,1-3.18-1.24,6.787,6.787,0,0,1-2-2.888A6.206,6.206,0,0,1,106,311.8a11.88,11.88,0,0,1,4.741-3.845,10.527,10.527,0,0,0-9.664,3.454.506.506,0,0,1-.381.176.612.612,0,0,1-.59-.587,8.886,8.886,0,0,1,.983-4.516,10.883,10.883,0,0,1,2.9-3.476,15.4,15.4,0,0,1,8.521-3.248c.293-.016.588-.025.878-.025a16.217,16.217,0,0,1,6.242,1.276,22.421,22.421,0,0,1,5.448,3.323,45.975,45.975,0,0,1,8.6,9.748,5.227,5.227,0,0,1,.457,5.541A7.51,7.51,0,0,1,127.764,323.547Z" transform="translate(-30.842 7.632)"/>
      </g>
    </g>
    <g id="face_Calm" data-name="face/Calm" transform="translate(428.5 513)">
      <path id="_Ink-3" data-name="ðŸ– Ink" d="M105.29,186.789a38.105,38.105,0,0,1-21.113-6.244A40.23,40.23,0,0,1,75.443,173a31.6,31.6,0,0,1-5.324-8.5,24.113,24.113,0,0,1-1.9-9.657,2.981,2.981,0,0,1,.707-1.9,3.319,3.319,0,0,1,1.766-1.06,3.41,3.41,0,0,1,.778-.09,3.133,3.133,0,0,1,1.287.27,2.747,2.747,0,0,1,1.361,1.338c.634.832,1.469,1.923,2.308,2.978a58.045,58.045,0,0,0,9.583,9.806,29.673,29.673,0,0,0,11.923,5.608,25.533,25.533,0,0,0,5.479.6,26.822,26.822,0,0,0,9.252-1.674,31.47,31.47,0,0,0,12.95-9.1A6.953,6.953,0,0,1,130.906,159h.046a8.137,8.137,0,0,1,5.628,2.492,8.779,8.779,0,0,1,2.629,5.729,7.665,7.665,0,0,1-2.177,5.629,43.621,43.621,0,0,1-9.179,7.479,44.426,44.426,0,0,1-10.811,4.772A42.24,42.24,0,0,1,105.29,186.789Zm11.91-55.62h0a34.914,34.914,0,0,1-12.449-2.509,62.872,62.872,0,0,1-14.639-8.307,5.624,5.624,0,0,1-2.043-3.249,6.731,6.731,0,0,1,.29-3.648,8.3,8.3,0,0,1,2.464-3.563,6,6,0,0,1,3.841-1.5,5.449,5.449,0,0,1,2.971.912q.464.355.969.747l.033.026a79.25,79.25,0,0,0,9.165,6.372c4.14,2.357,7.733,3.5,10.983,3.5a11.861,11.861,0,0,0,4.641-.912,12.97,12.97,0,0,0,4.322-3.062,13.255,13.255,0,0,0,2.515-10.671,20.157,20.157,0,0,0-5.35-9.465,39,39,0,0,0-8.1-6.536,2.511,2.511,0,0,1-.68-2.887,3.767,3.767,0,0,1,1.248-1.8,3.829,3.829,0,0,1,2.39-.79,5.091,5.091,0,0,1,.86.076,27.158,27.158,0,0,1,9.55,3.45,21.664,21.664,0,0,1,6.423,5.922,23.526,23.526,0,0,1,4.1,15.718,25.9,25.9,0,0,1-2.1,8.25,24.07,24.07,0,0,1-4.734,7.089A22.626,22.626,0,0,1,117.2,131.169ZM21.478,92.737a4.785,4.785,0,0,1-1.387-.2,2.817,2.817,0,0,1-1.9-1.637c-1.334-3.543-2.215-9.459,1.166-17.525a41.049,41.049,0,0,1,6.175-10.123,25.35,25.35,0,0,1,6.63-5.949A22.223,22.223,0,0,1,42.7,54.582,21.115,21.115,0,0,1,52.864,57.2a26.437,26.437,0,0,1,7.02,5.77,72.756,72.756,0,0,1,5.446,7.251c.717,1.045,1.458,2.125,2.213,3.173a6.387,6.387,0,0,1,1.075,5.938,7.679,7.679,0,0,1-4.359,4.5,8.345,8.345,0,0,1-3.212.659,7.33,7.33,0,0,1-2.864-.568,7.7,7.7,0,0,1-4.132-4.364,29.773,29.773,0,0,0-3.208-5.828,17.509,17.509,0,0,0-4.669-4.624,8.413,8.413,0,0,0-8.446-.645c-2.569,1.168-6.887,5-9.828,9.8a19.21,19.21,0,0,0-3.224,11.446,2.6,2.6,0,0,1-.841,2.183,3.271,3.271,0,0,1-1.823.809A4.291,4.291,0,0,1,21.478,92.737ZM166.437,78.62a6.247,6.247,0,0,1-1.8-.29,6.818,6.818,0,0,1-2.816-1.682,5.607,5.607,0,0,1-1.566-2.833,11.6,11.6,0,0,0-4.072-6.779,8.128,8.128,0,0,0-6.5-1.709,12.481,12.481,0,0,0-6.993,4.193,15.356,15.356,0,0,0-1.468,2.141l-.044.072a15.623,15.623,0,0,1-2.9,3.811,2.832,2.832,0,0,1-1.8.677,2.685,2.685,0,0,1-.8-.125,11.4,11.4,0,0,1-2.581-3.61,7.1,7.1,0,0,1-.514-3.114,12.334,12.334,0,0,1,2.269-6.248A24.287,24.287,0,0,1,141.116,57a20.88,20.88,0,0,1,6.932-3.265,18.726,18.726,0,0,1,3.927-.418A20.045,20.045,0,0,1,163.5,57.067a21.889,21.889,0,0,1,8.951,13.7,7.287,7.287,0,0,1-.366,4.046,5.675,5.675,0,0,1-2.648,2.944A6.293,6.293,0,0,1,166.437,78.62Zm-163-26.68a1.667,1.667,0,0,1-.216-.014,2.03,2.03,0,0,1-1.056-.513C.67,50.153-.056,48.026,0,45.092A27.357,27.357,0,0,1,2.785,34.463,67.929,67.929,0,0,1,8.141,25.49a47.211,47.211,0,0,1,6.866-7.826A59.424,59.424,0,0,1,34.225,5.959c3.484-1.3,8.7-3.018,13.7-3.018.284,0,.569.006.847.017a16.46,16.46,0,0,1,5.1.969,13.408,13.408,0,0,1,4.539,2.821A8.423,8.423,0,0,1,60.924,12.9a8.782,8.782,0,0,1-2.53,6.293,13,13,0,0,1-5.374,3.141,31.25,31.25,0,0,1-5.867,1.047,53.348,53.348,0,0,0-5.716.844,53.711,53.711,0,0,0-13.805,5.041c-4.386,2.381-9.353,5.332-12.939,9.17-.845.9-1.647,1.861-2.424,2.787l-.021.025c-.722.861-1.4,1.674-2.131,2.466-.809.883-1.552,1.772-2.438,2.843a12.09,12.09,0,0,0-.688,1.217c-.176.368-.346.707-.52,1.036-.322.607-.633,1.14-.923,1.582-.575.966-.872,1.2-1.107,1.3A2.481,2.481,0,0,1,3.434,51.94Zm171.174-2.194a1.958,1.958,0,0,1-.323-.027,1.93,1.93,0,0,1-.985-.479,1.852,1.852,0,0,1-.553-.956,35.885,35.885,0,0,0-5.218-12.672A27.352,27.352,0,0,0,157.1,26.725a66.921,66.921,0,0,0-14.575-4.9c-1.4-.332-2.913-.553-4.374-.767l-.069-.01a36.939,36.939,0,0,1-6.933-1.483,12.262,12.262,0,0,1-5.693-3.842,10.628,10.628,0,0,1-1.968-3.839,9.791,9.791,0,0,1-.237-4.133,8.486,8.486,0,0,1,4.608-6.279A13.869,13.869,0,0,1,134.3,0c5.379,0,11.207,2.494,15.462,4.316l.34.145.015.007q.573.245,1.129.48a50.754,50.754,0,0,1,17.7,11.809,38.243,38.243,0,0,1,9.1,16.807c1.346,5.83.711,11.119-1.836,15.295a1.816,1.816,0,0,1-.83.729A1.912,1.912,0,0,1,174.608,49.746Z" transform="translate(54 55.059)"/>
    </g>
    <g id="accessories_Glasses" data-name="accessories/Glasses" transform="translate(304.5 561)">
      <path id="_Ink-4" data-name="ðŸ– Ink" d="M200.732,123.706a75.376,75.376,0,0,1-13.221-1.2,74.529,74.529,0,0,1-12.943-3.521c-8.785-3.286-15.917-8-20.626-13.624-5.372-6.87-9.642-18.443-11.716-31.752a109.561,109.561,0,0,1-1.3-19.672,80.234,80.234,0,0,1,2.512-18.6l-.062-.025a1.091,1.091,0,0,1-.1-.043c-.071.7-1.077,1.288-2.907,1.7a31.188,31.188,0,0,1-6.493.588c-5.627,0-12.162-1.047-14.077-3.386a2.169,2.169,0,0,1-.5-1.869c-11.915.214-24.829,1-39.477,2.391C66.754,35.94,53.508,37.55,40.7,39.108c-8.837,1.075-17.97,2.185-27.014,3.173-4.268.4-4.478,3.438-4.681,6.379a12.431,12.431,0,0,1-.578,3.549,3.481,3.481,0,0,1-2.483,2.2l-.211,0a5.442,5.442,0,0,1-4.119-1.561A6.366,6.366,0,0,1,.041,48.977a15.11,15.11,0,0,1,2.32-8.8,13.807,13.807,0,0,1,3.076-3.588,8.965,8.965,0,0,1,4.009-1.922c8.8-.92,17.832-2.137,26.563-3.314,18.581-2.505,37.792-5.095,56.585-5.095a163.986,163.986,0,0,1,27.637,2.172c1.725-2.192,4.211-3.258,7.6-3.258a38.481,38.481,0,0,1,8.965,1.51c1.6.4,3.1.778,4.4.973a17.422,17.422,0,0,1,6.3-10.407,40.223,40.223,0,0,1,13.2-6.965,93.365,93.365,0,0,1,17.768-3.9,156.831,156.831,0,0,1,20.017-1.216c18.942,0,37.862,3,48.2,7.642,19-2.186,38.711-3.722,57.774-5.208l.027,0c7.708-.6,15.679-1.222,23.383-1.87A110.8,110.8,0,0,1,361.479,0a70.45,70.45,0,0,1,20.266,2.81c.319-.018.6-.026.847-.026,1.65,0,1.911.369,2.386,1.039.094.132.2.281.325.438a26.05,26.05,0,0,1,9.324,7.147,27,27,0,0,1,5.614,11.065,28.78,28.78,0,0,1,12.534-2.494,60.391,60.391,0,0,1,7.828.57,8.719,8.719,0,0,1,2.979,2.024,2.252,2.252,0,0,1,.6,1.985,3.974,3.974,0,0,1-1.764,2.2,15.189,15.189,0,0,1-3.692,1.8,31,31,0,0,1-9.764,1.667c-4.01,0-6.714-.959-7.616-2.7a88.348,88.348,0,0,1,.013,21.466,104.263,104.263,0,0,1-5.452,23.411,76.65,76.65,0,0,1-11.389,21.124,49.281,49.281,0,0,1-17.8,14.6,47.071,47.071,0,0,1-20.8,4.962,43.515,43.515,0,0,1-17.379-3.6A45.006,45.006,0,0,1,314.02,99.41c-9.5-9.817-14.458-23.466-13.964-38.432a3.822,3.822,0,0,1-2.485-2.035,12.512,12.512,0,0,1-1.11-5.656,43.537,43.537,0,0,1,.675-7.514,88.866,88.866,0,0,1,3.6-14.009,124.065,124.065,0,0,0-18.731-1.77,55.861,55.861,0,0,0-17.114,2.485c1.555,4.385,1.483,11.118-.206,19.47A127.145,127.145,0,0,1,256.2,77.666,130.146,130.146,0,0,1,242.293,102a70.79,70.79,0,0,1-8.082,9.265,35.192,35.192,0,0,1-8.357,6.06,34.054,34.054,0,0,1-11.233,4.809,58.144,58.144,0,0,1-13.886,1.571h0Zm-8.642-108.9c-10.552,0-16.022.764-19.61,1.43a43.807,43.807,0,0,0-17.533,6.933,19.215,19.215,0,0,0-3.4,5.856,43.868,43.868,0,0,0-2.222,8.216A93.1,93.1,0,0,0,148.284,58a113.557,113.557,0,0,0,3.267,21.96c1.856,7.228,4.376,13.336,7.287,17.664,1.628,2.64,6.611,7.03,14.071,10.889a63.013,63.013,0,0,0,12.128,4.773,52.932,52.932,0,0,0,14.07,1.982,43.686,43.686,0,0,0,14.925-2.567,45.431,45.431,0,0,0,14.688-8.875A66.945,66.945,0,0,0,242.08,86.888,123.632,123.632,0,0,0,253.026,60.12c2.657-6.733,4-12.788,3.982-18a22.619,22.619,0,0,0-3.624-12.78,23.434,23.434,0,0,0-6.933-6.617,39.736,39.736,0,0,0-9.921-4.4,74.408,74.408,0,0,0-12.346-2.49,132.521,132.521,0,0,0-14.21-.9c-.869.013-1.768.019-2.749.019-2.416,0-4.83-.037-7.385-.076h-.094C197.257,14.847,194.686,14.808,192.09,14.808Zm170.54-4.65a110.855,110.855,0,0,0-20.522,1.553A54.769,54.769,0,0,0,323,18.782a32.926,32.926,0,0,0-13.17,15.906,47.187,47.187,0,0,0-2.846,10.059,60.65,60.65,0,0,0-.834,10.491,6.068,6.068,0,0,1-.671,3.7,4.866,4.866,0,0,1-2.307,1.942,76.591,76.591,0,0,0,6.279,19.692,51.113,51.113,0,0,0,9.743,13.9,38.323,38.323,0,0,0,12.109,8.241,34.227,34.227,0,0,0,13.376,2.719h.006c10.45,0,20.734-4.719,28.957-13.289,9.047-9.428,15.079-22.866,17.443-38.86a86.547,86.547,0,0,0,1.468-19.447,36.491,36.491,0,0,0-1.562-8.9,21.556,21.556,0,0,0-3.979-7.389,19.079,19.079,0,0,0-7.63-5.387,32.361,32.361,0,0,0-11.917-1.989c-.392,0-.791,0-1.186.014C364.974,10.166,363.78,10.157,362.63,10.157ZM250.449,14.891h0a35.118,35.118,0,0,1,8.261,6.924,29.1,29.1,0,0,1,5.555,8.849,30.8,30.8,0,0,1,11.3-4.47,62.143,62.143,0,0,1,12.286-1.071c1.526,0,3.132.036,4.91.112.539.032,1.1.053,1.7.076,2.863.109,6.107.232,8.53,1.523a41.111,41.111,0,0,1,5.847-8.532,40.077,40.077,0,0,1,7.4-6.564c-3.034.23-6.132.474-9.127.709h-.016c-15.983,1.257-32.51,2.557-48.58,2.557C255.757,15.006,253.045,14.967,250.449,14.891Z" transform="translate(-2 10)"/>
    </g>
  </g>
</svg>
