<svg width="466" height="310" viewBox="0 0 466 310" fill="none" xmlns="http://www.w3.org/2000/svg">
<path d="M460.27 7.27911e-09H71.5369C70.0563 0.00134647 68.6366 0.590143 67.5897 1.63714C66.5427 2.68414 65.9539 4.10379 65.9526 5.58444V269.001C65.9539 270.482 66.5427 271.901 67.5897 272.948C68.6366 273.995 70.0563 274.584 71.5369 274.586H460.27C461.078 274.586 461.876 274.41 462.609 274.072C463.342 273.734 463.993 273.24 464.517 272.626C464.561 272.578 464.602 272.526 464.638 272.472C464.972 272.065 465.242 271.609 465.439 271.121C465.72 270.45 465.863 269.729 465.861 269.001V5.58448C465.86 4.10278 465.27 2.68232 464.222 1.63519C463.173 0.58806 461.752 -7.55496e-05 460.27 7.27911e-09ZM464.267 269.001C464.267 269.78 464.038 270.542 463.607 271.191C463.224 271.763 462.705 272.229 462.096 272.549C461.532 272.841 460.906 272.992 460.27 272.991H71.5369C70.4791 272.99 69.4651 272.569 68.7171 271.821C67.9692 271.073 67.5484 270.059 67.5471 269.001V5.58448C67.5484 4.52671 67.9691 3.51263 68.7171 2.76467C69.4651 2.0167 70.4791 1.59594 71.5369 1.59465H460.27C461.329 1.59452 462.345 2.01462 463.094 2.7627C463.843 3.51078 464.265 4.52567 464.267 5.58448V269.001Z" fill="#3F3D56"/>
<path d="M465.061 22.3821H66.7484V23.9786H465.061V22.3821Z" fill="#3F3D56"/>
<path d="M80.3181 16.7627C82.9632 16.7627 85.1075 14.6184 85.1075 11.9733C85.1075 9.32828 82.9632 7.18402 80.3181 7.18402C77.6731 7.18402 75.5288 9.32828 75.5288 11.9733C75.5288 14.6184 77.6731 16.7627 80.3181 16.7627Z" fill="#3F3D56"/>
<path d="M94.0875 16.7627C96.7326 16.7627 98.8769 14.6184 98.8769 11.9733C98.8769 9.32828 96.7326 7.18402 94.0875 7.18402C91.4425 7.18402 89.2982 9.32828 89.2982 11.9733C89.2982 14.6184 91.4425 16.7627 94.0875 16.7627Z" fill="#3F3D56"/>
<path d="M107.857 16.7627C110.502 16.7627 112.646 14.6184 112.646 11.9733C112.646 9.32828 110.502 7.18402 107.857 7.18402C105.212 7.18402 103.068 9.32828 103.068 11.9733C103.068 14.6184 105.212 16.7627 107.857 16.7627Z" fill="#3F3D56"/>
<path d="M365.873 59.336H166.062C163.854 59.336 161.737 58.4589 160.175 56.8975C158.614 55.3362 157.737 53.2186 157.737 51.0106C157.737 48.8025 158.614 46.6849 160.175 45.1236C161.737 43.5623 163.854 42.6851 166.062 42.6851H365.873C368.081 42.6851 370.198 43.5623 371.76 45.1236C373.321 46.6849 374.198 48.8025 374.198 51.0106C374.198 53.2186 373.321 55.3362 371.76 56.8975C370.198 58.4589 368.081 59.336 365.873 59.336ZM166.062 43.966C164.194 43.966 162.402 44.7082 161.081 46.0293C159.76 47.3504 159.018 49.1422 159.018 51.0106C159.018 52.8789 159.76 54.6707 161.081 55.9918C162.402 57.313 164.194 58.0551 166.062 58.0551H365.873C367.741 58.0551 369.533 57.313 370.854 55.9918C372.175 54.6707 372.917 52.8789 372.917 51.0106C372.917 49.1422 372.175 47.3504 370.854 46.0293C369.533 44.7082 367.741 43.966 365.873 43.966H166.062Z" fill="black"/>
<path d="M167.732 110.249H149.8C148.441 110.249 147.138 109.709 146.177 108.749C145.216 107.788 144.677 106.485 144.677 105.126C144.677 103.767 145.216 102.464 146.177 101.503C147.138 100.542 148.441 100.003 149.8 100.003H167.732C169.09 100.003 170.393 100.542 171.354 101.503C172.315 102.464 172.855 103.767 172.855 105.126C172.855 106.485 172.315 107.788 171.354 108.749C170.393 109.709 169.09 110.249 167.732 110.249Z" fill="#4F4F4F"/>
<path d="M188.865 127.54H149.8C148.441 127.54 147.138 127.001 146.177 126.04C145.216 125.079 144.677 123.776 144.677 122.417C144.677 121.058 145.216 119.755 146.177 118.794C147.138 117.834 148.441 117.294 149.8 117.294H188.865C190.224 117.294 191.527 117.834 192.488 118.794C193.449 119.755 193.989 121.058 193.989 122.417C193.989 123.776 193.449 125.079 192.488 126.04C191.527 127.001 190.224 127.54 188.865 127.54Z" fill="#4F4F4F"/>
<path d="M170.934 185.819H153.002C151.643 185.819 150.34 185.279 149.379 184.318C148.418 183.357 147.879 182.054 147.879 180.695C147.879 179.336 148.418 178.033 149.379 177.072C150.34 176.112 151.643 175.572 153.002 175.572H170.934C172.292 175.572 173.596 176.112 174.556 177.072C175.517 178.033 176.057 179.336 176.057 180.695C176.057 182.054 175.517 183.357 174.556 184.318C173.596 185.279 172.292 185.819 170.934 185.819Z" fill="#4F4F4F"/>
<path d="M192.067 203.11H153.002C151.643 203.11 150.34 202.57 149.379 201.609C148.418 200.648 147.879 199.345 147.879 197.986C147.879 196.628 148.418 195.325 149.379 194.364C150.34 193.403 151.643 192.863 153.002 192.863H192.067C193.426 192.863 194.729 193.403 195.69 194.364C196.651 195.325 197.191 196.628 197.191 197.986C197.191 199.345 196.651 200.648 195.69 201.609C194.729 202.57 193.426 203.11 192.067 203.11Z" fill="#4F4F4F"/>
<path d="M288.77 183.897H270.839C269.48 183.897 268.177 183.357 267.216 182.397C266.255 181.436 265.715 180.133 265.715 178.774C265.715 177.415 266.255 176.112 267.216 175.151C268.177 174.19 269.48 173.651 270.839 173.651H288.77C290.129 173.651 291.432 174.19 292.393 175.151C293.354 176.112 293.894 177.415 293.894 178.774C293.894 180.133 293.354 181.436 292.393 182.397C291.432 183.357 290.129 183.897 288.77 183.897Z" fill="#4F4F4F"/>
<path d="M309.904 201.189H270.839C269.48 201.189 268.177 200.649 267.216 199.688C266.255 198.727 265.715 197.424 265.715 196.065C265.715 194.706 266.255 193.403 267.216 192.442C268.177 191.482 269.48 190.942 270.839 190.942H309.904C311.263 190.942 312.566 191.482 313.527 192.442C314.488 193.403 315.027 194.706 315.027 196.065C315.027 197.424 314.488 198.727 313.527 199.688C312.566 200.649 311.263 201.189 309.904 201.189Z" fill="#4F4F4F"/>
<path d="M286.849 113.451H268.917C267.559 113.451 266.255 112.911 265.295 111.951C264.334 110.99 263.794 109.687 263.794 108.328C263.794 106.969 264.334 105.666 265.295 104.705C266.255 103.744 267.559 103.205 268.917 103.205H286.849C288.208 103.205 289.511 103.744 290.472 104.705C291.433 105.666 291.972 106.969 291.972 108.328C291.972 109.687 291.433 110.99 290.472 111.951C289.511 112.911 288.208 113.451 286.849 113.451Z" fill="#4F4F4F"/>
<path d="M307.983 130.743H268.917C267.559 130.743 266.255 130.203 265.295 129.242C264.334 128.281 263.794 126.978 263.794 125.619C263.794 124.26 264.334 122.957 265.295 121.996C266.255 121.036 267.559 120.496 268.917 120.496H307.983C309.342 120.496 310.645 121.036 311.606 121.996C312.566 122.957 313.106 124.26 313.106 125.619C313.106 126.978 312.566 128.281 311.606 129.242C310.645 130.203 309.342 130.743 307.983 130.743Z" fill="#4F4F4F"/>
<path d="M406.607 109.609H388.676C387.317 109.609 386.014 109.069 385.053 108.108C384.092 107.147 383.552 105.844 383.552 104.485C383.552 103.127 384.092 101.824 385.053 100.863C386.014 99.9019 387.317 99.3621 388.676 99.3621H406.607C407.966 99.3621 409.269 99.9019 410.23 100.863C411.191 101.824 411.731 103.127 411.731 104.485C411.731 105.844 411.191 107.147 410.23 108.108C409.269 109.069 407.966 109.609 406.607 109.609Z" fill="#4F4F4F"/>
<path d="M427.741 126.9H388.676C387.317 126.9 386.014 126.36 385.053 125.399C384.092 124.439 383.552 123.136 383.552 121.777C383.552 120.418 384.092 119.115 385.053 118.154C386.014 117.193 387.317 116.653 388.676 116.653H427.741C429.1 116.653 430.403 117.193 431.364 118.154C432.325 119.115 432.864 120.418 432.864 121.777C432.864 123.136 432.325 124.439 431.364 125.399C430.403 126.36 429.1 126.9 427.741 126.9Z" fill="#4F4F4F"/>
<path d="M118.162 132.984C128.773 132.984 137.375 124.382 137.375 113.771C137.375 103.161 128.773 94.559 118.162 94.559C107.551 94.559 98.9495 103.161 98.9495 113.771C98.9495 124.382 107.551 132.984 118.162 132.984Z" fill="#2D9CDB"/>
<path d="M127.128 122.417H109.196C108.687 122.417 108.199 122.214 107.838 121.854C107.478 121.494 107.276 121.005 107.275 120.496V107.047C107.276 106.538 107.478 106.049 107.838 105.689C108.199 105.329 108.687 105.127 109.196 105.126H114.244C114.573 105.125 114.896 105.208 115.182 105.368C115.469 105.528 115.709 105.76 115.881 106.04L117.288 108.328H127.128C127.637 108.329 128.126 108.531 128.486 108.891C128.846 109.252 129.049 109.74 129.049 110.249V120.496C129.049 121.005 128.846 121.494 128.486 121.854C128.126 122.214 127.637 122.417 127.128 122.417ZM109.196 106.407C109.026 106.407 108.864 106.475 108.744 106.595C108.624 106.715 108.556 106.877 108.556 107.047V120.496C108.556 120.666 108.624 120.829 108.744 120.949C108.864 121.069 109.026 121.136 109.196 121.136H127.128C127.298 121.136 127.461 121.069 127.581 120.949C127.701 120.829 127.768 120.666 127.768 120.496V110.249C127.768 110.08 127.701 109.917 127.581 109.797C127.461 109.677 127.298 109.609 127.128 109.609H116.573L114.79 106.711C114.733 106.618 114.653 106.541 114.557 106.488C114.461 106.434 114.354 106.406 114.244 106.407H109.196Z" fill="white"/>
<path d="M235.999 136.186C246.61 136.186 255.211 127.584 255.211 116.974C255.211 106.363 246.61 97.761 235.999 97.761C225.388 97.761 216.786 106.363 216.786 116.974C216.786 127.584 225.388 136.186 235.999 136.186Z" fill="#2D9CDB"/>
<path d="M244.324 129.142H227.674C227.164 129.141 226.676 128.939 226.316 128.578C225.955 128.218 225.753 127.73 225.752 127.22V106.727C225.753 106.218 225.955 105.729 226.316 105.369C226.676 105.009 227.164 104.806 227.674 104.806H239.739C240.176 104.806 240.601 104.956 240.942 105.23L245.528 108.914C245.752 109.094 245.934 109.322 246.058 109.581C246.182 109.84 246.246 110.124 246.246 110.412V127.22C246.245 127.73 246.043 128.218 245.682 128.578C245.322 128.939 244.834 129.141 244.324 129.142ZM227.674 106.087C227.504 106.087 227.341 106.154 227.221 106.274C227.101 106.394 227.033 106.557 227.033 106.727V127.22C227.033 127.39 227.101 127.553 227.221 127.673C227.341 127.793 227.504 127.861 227.674 127.861H244.324C244.494 127.861 244.657 127.793 244.777 127.673C244.897 127.553 244.965 127.39 244.965 127.22V110.412C244.965 110.316 244.944 110.221 244.902 110.135C244.861 110.049 244.8 109.973 244.726 109.913L240.14 106.228C240.026 106.136 239.884 106.087 239.739 106.087H227.674Z" fill="white"/>
<path d="M241.122 113.772H230.876C230.706 113.772 230.543 113.704 230.423 113.584C230.303 113.464 230.235 113.301 230.235 113.131C230.235 112.961 230.303 112.798 230.423 112.678C230.543 112.558 230.706 112.491 230.876 112.491H241.122C241.292 112.491 241.455 112.558 241.575 112.678C241.695 112.798 241.763 112.961 241.763 113.131C241.763 113.301 241.695 113.464 241.575 113.584C241.455 113.704 241.292 113.772 241.122 113.772Z" fill="white"/>
<path d="M241.122 117.614H230.876C230.706 117.614 230.543 117.547 230.423 117.427C230.303 117.306 230.235 117.144 230.235 116.974C230.235 116.804 230.303 116.641 230.423 116.521C230.543 116.401 230.706 116.333 230.876 116.333H241.122C241.292 116.333 241.455 116.401 241.575 116.521C241.695 116.641 241.763 116.804 241.763 116.974C241.763 117.144 241.695 117.306 241.575 117.427C241.455 117.547 241.292 117.614 241.122 117.614Z" fill="white"/>
<path d="M241.122 121.457H230.876C230.706 121.457 230.543 121.389 230.423 121.269C230.303 121.149 230.235 120.986 230.235 120.816C230.235 120.646 230.303 120.483 230.423 120.363C230.543 120.243 230.706 120.176 230.876 120.176H241.122C241.292 120.176 241.455 120.243 241.575 120.363C241.695 120.483 241.763 120.646 241.763 120.816C241.763 120.986 241.695 121.149 241.575 121.269C241.455 121.389 241.292 121.457 241.122 121.457Z" fill="white"/>
<path d="M354.476 132.344C365.087 132.344 373.689 123.742 373.689 113.131C373.689 102.52 365.087 93.9185 354.476 93.9185C343.865 93.9185 335.264 102.52 335.264 113.131C335.264 123.742 343.865 132.344 354.476 132.344Z" fill="#2D9CDB"/>
<path d="M363.442 120.176H345.51C345.001 120.175 344.512 119.973 344.152 119.612C343.792 119.252 343.589 118.764 343.589 118.255V108.008C343.589 107.498 343.792 107.01 344.152 106.65C344.512 106.29 345.001 106.087 345.51 106.087H363.442C363.951 106.087 364.44 106.29 364.8 106.65C365.16 107.01 365.363 107.498 365.363 108.008V118.255C365.363 118.764 365.16 119.252 364.8 119.612C364.44 119.973 363.951 120.175 363.442 120.176ZM345.51 107.367C345.34 107.368 345.178 107.435 345.057 107.555C344.937 107.675 344.87 107.838 344.87 108.008V118.255C344.87 118.424 344.937 118.587 345.057 118.707C345.178 118.827 345.34 118.895 345.51 118.895H363.442C363.612 118.895 363.774 118.827 363.894 118.707C364.015 118.587 364.082 118.424 364.082 118.255V108.008C364.082 107.838 364.015 107.675 363.894 107.555C363.774 107.435 363.612 107.368 363.442 107.367H345.51Z" fill="white"/>
<path d="M354.476 114.821C354.116 114.821 353.763 114.721 353.458 114.531L343.89 108.551C343.746 108.461 343.644 108.317 343.606 108.152C343.568 107.987 343.597 107.813 343.687 107.669C343.777 107.525 343.92 107.423 344.086 107.384C344.251 107.346 344.425 107.375 344.569 107.465L354.137 113.445C354.239 113.508 354.356 113.541 354.476 113.541C354.596 113.541 354.714 113.508 354.816 113.445L364.383 107.465C364.527 107.375 364.701 107.346 364.866 107.384C365.031 107.423 365.175 107.525 365.265 107.669C365.355 107.813 365.384 107.987 365.346 108.152C365.308 108.317 365.206 108.461 365.062 108.551L355.495 114.531C355.189 114.721 354.836 114.821 354.476 114.821Z" fill="white"/>
<path d="M118.162 208.553C128.773 208.553 137.375 199.952 137.375 189.341C137.375 178.73 128.773 170.128 118.162 170.128C107.551 170.128 98.9495 178.73 98.9495 189.341C98.9495 199.952 107.551 208.553 118.162 208.553Z" fill="#2D9CDB"/>
<path d="M127.128 196.386H109.196C108.687 196.385 108.199 196.182 107.838 195.822C107.478 195.462 107.276 194.974 107.275 194.464V184.218C107.276 183.708 107.478 183.22 107.838 182.86C108.199 182.499 108.687 182.297 109.196 182.296H127.128C127.637 182.297 128.126 182.499 128.486 182.86C128.846 183.22 129.049 183.708 129.049 184.218V194.464C129.049 194.974 128.846 195.462 128.486 195.822C128.126 196.182 127.637 196.385 127.128 196.386ZM109.196 183.577C109.026 183.577 108.864 183.645 108.744 183.765C108.624 183.885 108.556 184.048 108.556 184.218V194.464C108.556 194.634 108.624 194.797 108.744 194.917C108.864 195.037 109.026 195.105 109.196 195.105H127.128C127.298 195.105 127.461 195.037 127.581 194.917C127.701 194.797 127.768 194.634 127.768 194.464V184.218C127.768 184.048 127.701 183.885 127.581 183.765C127.461 183.645 127.298 183.577 127.128 183.577H109.196Z" fill="white"/>
<path d="M124.286 196.386H111.398C111.173 196.386 110.952 196.326 110.758 196.214C110.563 196.102 110.401 195.94 110.289 195.745C110.176 195.55 110.117 195.33 110.117 195.105C110.117 194.88 110.176 194.659 110.289 194.464L114.171 187.74C114.283 187.545 114.445 187.383 114.64 187.271C114.834 187.159 115.055 187.099 115.28 187.099C115.505 187.099 115.726 187.159 115.921 187.271C116.115 187.383 116.277 187.545 116.389 187.74L118.897 192.083L120.349 189.567C120.462 189.372 120.623 189.21 120.818 189.098C121.013 188.985 121.234 188.926 121.458 188.926C121.683 188.926 121.904 188.985 122.099 189.098C122.294 189.21 122.455 189.372 122.568 189.567L125.395 194.464C125.508 194.659 125.567 194.88 125.567 195.105C125.567 195.33 125.508 195.55 125.395 195.745C125.283 195.94 125.121 196.102 124.926 196.214C124.732 196.326 124.511 196.386 124.286 196.386H124.286ZM124.286 195.105L121.458 190.207L119.451 193.684C119.395 193.781 119.314 193.862 119.217 193.918C119.12 193.974 119.009 194.004 118.897 194.004C118.784 194.004 118.674 193.974 118.576 193.918C118.479 193.862 118.398 193.781 118.342 193.684L115.28 188.38L111.398 195.105H124.286Z" fill="white"/>
<path d="M125.207 187.42C125.914 187.42 126.487 186.846 126.487 186.139C126.487 185.431 125.914 184.858 125.207 184.858C124.499 184.858 123.926 185.431 123.926 186.139C123.926 186.846 124.499 187.42 125.207 187.42Z" fill="white"/>
<path d="M237.28 206.632C247.891 206.632 256.492 198.03 256.492 187.42C256.492 176.809 247.891 168.207 237.28 168.207C226.669 168.207 218.067 176.809 218.067 187.42C218.067 198.03 226.669 206.632 237.28 206.632Z" fill="#2D9CDB"/>
<path d="M237.28 187.74C236.14 187.74 235.026 187.402 234.078 186.769C233.13 186.135 232.391 185.235 231.955 184.182C231.519 183.129 231.404 181.97 231.627 180.852C231.849 179.734 232.398 178.707 233.204 177.901C234.01 177.094 235.037 176.546 236.155 176.323C237.273 176.101 238.432 176.215 239.486 176.651C240.539 177.087 241.439 177.826 242.072 178.774C242.706 179.722 243.044 180.836 243.044 181.976C243.042 183.504 242.434 184.969 241.354 186.05C240.273 187.13 238.808 187.738 237.28 187.74ZM237.28 177.493C236.393 177.493 235.527 177.756 234.789 178.249C234.052 178.741 233.477 179.441 233.138 180.261C232.799 181.08 232.71 181.981 232.883 182.851C233.056 183.72 233.483 184.519 234.11 185.146C234.737 185.773 235.536 186.2 236.405 186.373C237.275 186.546 238.176 186.457 238.995 186.118C239.815 185.779 240.515 185.204 241.007 184.467C241.5 183.729 241.763 182.863 241.763 181.976C241.761 180.788 241.289 179.648 240.448 178.808C239.608 177.967 238.468 177.495 237.28 177.493Z" fill="white"/>
<path d="M242.403 198.627H232.157C231.562 198.626 230.993 198.39 230.572 197.97C230.152 197.549 229.916 196.98 229.915 196.386C229.915 194.432 230.691 192.559 232.072 191.178C233.453 189.797 235.327 189.021 237.28 189.021C239.233 189.021 241.106 189.797 242.488 191.178C243.869 192.559 244.645 194.432 244.645 196.386C244.644 196.98 244.408 197.549 243.987 197.97C243.567 198.39 242.997 198.626 242.403 198.627ZM237.28 190.302C235.667 190.303 234.12 190.945 232.98 192.086C231.839 193.226 231.198 194.773 231.196 196.386C231.196 196.64 231.297 196.884 231.478 197.064C231.658 197.245 231.902 197.346 232.157 197.346H242.403C242.658 197.346 242.902 197.245 243.082 197.064C243.262 196.884 243.364 196.64 243.364 196.386C243.362 194.773 242.72 193.226 241.58 192.086C240.439 190.945 238.893 190.303 237.28 190.302Z" fill="white"/>
<path d="M51.8334 301.764H59.685L63.4199 271.48L51.8322 271.48L51.8334 301.764Z" fill="#FFB8B8"/>
<path d="M74.8269 309.053L50.1511 309.055L50.1507 299.521L65.2927 299.52C67.8212 299.52 70.2462 300.524 72.0342 302.312C73.8222 304.1 74.8268 306.525 74.8269 309.053L74.8269 309.053Z" fill="#2F2E41"/>
<path d="M22.3742 301.764H30.2257L33.9606 271.48L22.3729 271.48L22.3742 301.764Z" fill="#FFB8B8"/>
<path d="M45.3678 309.053L20.692 309.055L20.6916 299.521L35.8335 299.52C38.3621 299.52 40.7871 300.524 42.5751 302.312C44.3631 304.1 45.3677 306.525 45.3678 309.053L45.3678 309.053Z" fill="#2F2E41"/>
<path d="M23.3331 211.568C24.179 211.024 24.8953 210.301 25.4315 209.45C25.9678 208.599 26.311 207.641 26.4369 206.643C26.5628 205.646 26.4684 204.632 26.1603 203.675C25.8522 202.717 25.338 201.839 24.6538 201.102L29.8235 127.737L14.9319 129.181L14.5229 201.028C13.3606 202.259 12.6905 203.874 12.6395 205.567C12.5885 207.259 13.1601 208.912 14.2461 210.211C15.3321 211.511 16.857 212.366 18.5317 212.616C20.2065 212.867 21.9149 212.494 23.3331 211.568H23.3331Z" fill="#FFB8B8"/>
<path d="M52.0675 286.511C51.363 286.509 50.6836 286.25 50.1567 285.782C49.6298 285.314 49.2916 284.67 49.2056 283.971L44.6419 245.801C44.5776 245.263 44.3211 244.767 43.9196 244.404C43.5181 244.041 42.9988 243.836 42.4576 243.826C41.9164 243.816 41.3899 244.002 40.9752 244.35C40.5606 244.698 40.2859 245.184 40.2019 245.719L34.4529 282.266C34.3488 282.945 34.0041 283.565 33.4816 284.012C32.9591 284.458 32.2935 284.703 31.606 284.7H22.288C21.9077 284.7 21.5311 284.625 21.1801 284.478C20.829 284.332 20.5104 284.118 20.2425 283.848C19.9746 283.578 19.7628 283.258 19.6192 282.906C19.4757 282.553 19.4032 282.176 19.4061 281.796L23.8533 200.761C23.855 200.071 24.1055 199.405 24.5588 198.885C25.0122 198.365 25.6379 198.026 26.3212 197.931L60.8997 192.911C61.3105 192.852 61.7294 192.882 62.1276 192.999C62.5258 193.116 62.894 193.318 63.207 193.591C63.5199 193.864 63.7703 194.201 63.9409 194.579C64.1115 194.958 64.1984 195.369 64.1956 195.784L63.5924 283.237C63.5873 283.974 63.2999 284.681 62.7893 285.213C62.2788 285.745 61.5839 286.06 60.8476 286.095L52.2043 286.507C52.1585 286.51 52.1129 286.511 52.0675 286.511Z" fill="#2F2E41"/>
<path d="M34.1405 203.823C30.8145 203.81 27.5156 203.223 24.3896 202.087C23.8597 201.891 23.3994 201.544 23.0668 201.087C22.7343 200.631 22.5443 200.086 22.5209 199.522C22.2225 192.902 20.4773 158.827 15.3965 138.042C14.409 133.965 14.6505 129.687 16.0907 125.746C17.5308 121.806 20.1051 118.381 23.4892 115.901C23.7625 115.705 24.0411 115.512 24.325 115.323C27.2636 113.366 30.6538 112.195 34.1731 111.919C37.6924 111.643 41.2238 112.272 44.4313 113.747C47.7448 115.229 50.6239 117.535 52.7944 120.445C54.965 123.354 56.355 126.771 56.832 130.37L65.1174 191.882C65.1706 192.267 65.1452 192.658 65.0427 193.033C64.9402 193.407 64.7627 193.757 64.5211 194.061C64.2847 194.362 63.9895 194.613 63.6533 194.797C63.3172 194.981 62.9471 195.095 62.5656 195.132C59.6946 195.419 53.7403 196.531 46.1197 200.765C42.4551 202.795 38.3298 203.848 34.1405 203.823Z" fill="#3F3D56"/>
<path d="M24.0112 152.834L10.3763 149.137C9.63907 148.936 9.0116 148.451 8.63154 147.788C8.25148 147.125 8.14985 146.339 8.34896 145.601L13.1422 127.922C13.6556 126.029 14.8519 124.392 16.5005 123.328C18.1491 122.264 20.1332 121.849 22.0702 122.161C24.0072 122.474 25.76 123.492 26.9905 125.02C28.221 126.548 28.8421 128.478 28.7341 130.437L27.6429 150.211C27.6193 150.64 27.5002 151.058 27.2943 151.434C27.0883 151.811 26.8008 152.137 26.4527 152.389C26.1046 152.64 25.7047 152.81 25.2823 152.887C24.8599 152.964 24.4256 152.946 24.0112 152.834Z" fill="#3F3D56"/>
<path d="M39.1893 105.394C47.8763 105.394 54.9186 98.352 54.9186 89.6649C54.9186 80.9779 47.8763 73.9356 39.1893 73.9356C30.5022 73.9356 23.46 80.9779 23.46 89.6649C23.46 98.352 30.5022 105.394 39.1893 105.394Z" fill="#FFB8B8"/>
<path d="M96.1889 120.568C96.1103 120.914 96.059 121.265 96.0356 121.618L68.5249 137.489L61.8381 133.64L54.7095 142.972L69.0146 153.168L100.4 128.408C101.68 128.881 103.074 128.954 104.397 128.616C105.719 128.278 106.907 127.546 107.803 126.516C108.699 125.487 109.261 124.209 109.413 122.852C109.565 121.496 109.3 120.125 108.654 118.923C108.008 117.72 107.012 116.743 105.797 116.121C104.582 115.499 103.206 115.261 101.853 115.44C100.5 115.618 99.2334 116.205 98.2215 117.121C97.2097 118.037 96.5007 119.239 96.1889 120.568V120.568Z" fill="#FFB8B8"/>
<path d="M66.2448 138.255L54.3944 145.946C53.753 146.361 52.9731 146.505 52.2258 146.346C51.4784 146.186 50.8248 145.737 50.4081 145.097L40.4368 129.732C39.3686 128.086 38.9477 126.103 39.2551 124.165C39.5624 122.227 40.5764 120.472 42.1014 119.237C43.6265 118.003 45.5546 117.377 47.5139 117.48C49.4733 117.583 51.3251 118.408 52.7124 119.795L66.7141 133.8C67.0177 134.104 67.2497 134.471 67.393 134.876C67.5363 135.281 67.5873 135.712 67.5423 136.139C67.4973 136.566 67.3575 136.978 67.133 137.344C66.9085 137.71 66.6051 138.021 66.2448 138.255Z" fill="#3F3D56"/>
<path d="M28.0584 102.109C30.9928 105.235 36.4424 103.557 36.8247 99.2868C36.8547 98.9553 36.8525 98.6217 36.8182 98.2905C36.6208 96.399 35.528 94.6818 35.7898 92.6846C35.849 92.1875 36.0342 91.7138 36.3278 91.3084C38.6661 88.1772 44.1552 92.7089 46.362 89.8743C47.7152 88.1362 46.1245 85.3996 47.1629 83.457C48.5335 80.893 52.5929 82.1578 55.1386 80.7537C57.971 79.1914 57.8016 74.8457 55.9371 72.2024C53.6633 68.9788 49.6766 67.2587 45.7395 67.0108C41.8025 66.7629 37.8925 67.8271 34.2169 69.2595C30.0407 70.8871 25.8994 73.1363 23.3294 76.8085C20.204 81.2742 19.9033 87.278 21.4663 92.4998C22.4172 95.6763 25.6622 99.5568 28.0584 102.109Z" fill="#2F2E41"/>
<path d="M90.2989 309.099H0.640418C0.470568 309.099 0.307675 309.031 0.187574 308.911C0.0674719 308.791 0 308.628 0 308.459C0 308.289 0.0674719 308.126 0.187574 308.006C0.307675 307.886 0.470568 307.818 0.640418 307.818H90.2989C90.4687 307.818 90.6316 307.886 90.7517 308.006C90.8718 308.126 90.9393 308.289 90.9393 308.459C90.9393 308.628 90.8718 308.791 90.7517 308.911C90.6316 309.031 90.4687 309.099 90.2989 309.099Z" fill="#3F3D56"/>
</svg>
