<svg width="1124" height="470" viewBox="0 0 1124 470" fill="none" xmlns="http://www.w3.org/2000/svg">
<rect width="1124" height="470" fill="#2D9CDB" fill-opacity="0.15"/>
<path d="M142.01 88.94V93.05H136.43V110H131.3V93.05H125.72V88.94H142.01ZM160.365 101.36C160.365 101.84 160.335 102.34 160.275 102.86H148.665C148.745 103.9 149.075 104.7 149.655 105.26C150.255 105.8 150.985 106.07 151.845 106.07C153.125 106.07 154.015 105.53 154.515 104.45H159.975C159.695 105.55 159.185 106.54 158.445 107.42C157.725 108.3 156.815 108.99 155.715 109.49C154.615 109.99 153.385 110.24 152.025 110.24C150.385 110.24 148.925 109.89 147.645 109.19C146.365 108.49 145.365 107.49 144.645 106.19C143.925 104.89 143.565 103.37 143.565 101.63C143.565 99.89 143.915 98.37 144.615 97.07C145.335 95.77 146.335 94.77 147.615 94.07C148.895 93.37 150.365 93.02 152.025 93.02C153.645 93.02 155.085 93.36 156.345 94.04C157.605 94.72 158.585 95.69 159.285 96.95C160.005 98.21 160.365 99.68 160.365 101.36ZM155.115 100.01C155.115 99.13 154.815 98.43 154.215 97.91C153.615 97.39 152.865 97.13 151.965 97.13C151.105 97.13 150.375 97.38 149.775 97.88C149.195 98.38 148.835 99.09 148.695 100.01H155.115ZM184.431 93.08C186.511 93.08 188.161 93.71 189.381 94.97C190.621 96.23 191.241 97.98 191.241 100.22V110H186.141V100.91C186.141 99.83 185.851 99 185.271 98.42C184.711 97.82 183.931 97.52 182.931 97.52C181.931 97.52 181.141 97.82 180.561 98.42C180.001 99 179.721 99.83 179.721 100.91V110H174.621V100.91C174.621 99.83 174.331 99 173.751 98.42C173.191 97.82 172.411 97.52 171.411 97.52C170.411 97.52 169.621 97.82 169.041 98.42C168.481 99 168.201 99.83 168.201 100.91V110H163.071V93.26H168.201V95.36C168.721 94.66 169.401 94.11 170.241 93.71C171.081 93.29 172.031 93.08 173.091 93.08C174.351 93.08 175.471 93.35 176.451 93.89C177.451 94.43 178.231 95.2 178.791 96.2C179.371 95.28 180.161 94.53 181.161 93.95C182.161 93.37 183.251 93.08 184.431 93.08ZM211.359 93.26V110H206.229V107.72C205.709 108.46 204.999 109.06 204.099 109.52C203.219 109.96 202.239 110.18 201.159 110.18C199.879 110.18 198.749 109.9 197.769 109.34C196.789 108.76 196.029 107.93 195.489 106.85C194.949 105.77 194.679 104.5 194.679 103.04V93.26H199.779V102.35C199.779 103.47 200.069 104.34 200.649 104.96C201.229 105.58 202.009 105.89 202.989 105.89C203.989 105.89 204.779 105.58 205.359 104.96C205.939 104.34 206.229 103.47 206.229 102.35V93.26H211.359ZM225.274 110L220.174 102.98V110H215.044V87.8H220.174V100.07L225.244 93.26H231.574L224.614 101.66L231.634 110H225.274ZM232.569 101.6C232.569 99.88 232.889 98.37 233.529 97.07C234.189 95.77 235.079 94.77 236.199 94.07C237.319 93.37 238.569 93.02 239.949 93.02C241.129 93.02 242.159 93.26 243.039 93.74C243.939 94.22 244.629 94.85 245.109 95.63V93.26H250.239V110H245.109V107.63C244.609 108.41 243.909 109.04 243.009 109.52C242.129 110 241.099 110.24 239.919 110.24C238.559 110.24 237.319 109.89 236.199 109.19C235.079 108.47 234.189 107.46 233.529 106.16C232.889 104.84 232.569 103.32 232.569 101.6ZM245.109 101.63C245.109 100.35 244.749 99.34 244.029 98.6C243.329 97.86 242.469 97.49 241.449 97.49C240.429 97.49 239.559 97.86 238.839 98.6C238.139 99.32 237.789 100.32 237.789 101.6C237.789 102.88 238.139 103.9 238.839 104.66C239.559 105.4 240.429 105.77 241.449 105.77C242.469 105.77 243.329 105.4 244.029 104.66C244.749 103.92 245.109 102.91 245.109 101.63ZM264.15 93.08C266.11 93.08 267.67 93.72 268.83 95C270.01 96.26 270.6 98 270.6 100.22V110H265.5V100.91C265.5 99.79 265.21 98.92 264.63 98.3C264.05 97.68 263.27 97.37 262.29 97.37C261.31 97.37 260.53 97.68 259.95 98.3C259.37 98.92 259.08 99.79 259.08 100.91V110H253.95V93.26H259.08V95.48C259.6 94.74 260.3 94.16 261.18 93.74C262.06 93.3 263.05 93.08 264.15 93.08ZM279.502 101.6C279.502 99.88 279.822 98.37 280.462 97.07C281.122 95.77 282.012 94.77 283.132 94.07C284.252 93.37 285.502 93.02 286.882 93.02C287.982 93.02 288.982 93.25 289.882 93.71C290.802 94.17 291.522 94.79 292.042 95.57V87.8H297.172V110H292.042V107.6C291.562 108.4 290.872 109.04 289.972 109.52C289.092 110 288.062 110.24 286.882 110.24C285.502 110.24 284.252 109.89 283.132 109.19C282.012 108.47 281.122 107.46 280.462 106.16C279.822 104.84 279.502 103.32 279.502 101.6ZM292.042 101.63C292.042 100.35 291.682 99.34 290.962 98.6C290.262 97.86 289.402 97.49 288.382 97.49C287.362 97.49 286.492 97.86 285.772 98.6C285.072 99.32 284.722 100.32 284.722 101.6C284.722 102.88 285.072 103.9 285.772 104.66C286.492 105.4 287.362 105.77 288.382 105.77C289.402 105.77 290.262 105.4 290.962 104.66C291.682 103.92 292.042 102.91 292.042 101.63ZM299.863 101.6C299.863 99.88 300.183 98.37 300.823 97.07C301.483 95.77 302.373 94.77 303.493 94.07C304.613 93.37 305.863 93.02 307.243 93.02C308.423 93.02 309.453 93.26 310.333 93.74C311.233 94.22 311.923 94.85 312.403 95.63V93.26H317.533V110H312.403V107.63C311.903 108.41 311.203 109.04 310.303 109.52C309.423 110 308.393 110.24 307.213 110.24C305.853 110.24 304.613 109.89 303.493 109.19C302.373 108.47 301.483 107.46 300.823 106.16C300.183 104.84 299.863 103.32 299.863 101.6ZM312.403 101.63C312.403 100.35 312.043 99.34 311.323 98.6C310.623 97.86 309.763 97.49 308.743 97.49C307.723 97.49 306.853 97.86 306.133 98.6C305.433 99.32 305.083 100.32 305.083 101.6C305.083 102.88 305.433 103.9 306.133 104.66C306.853 105.4 307.723 105.77 308.743 105.77C309.763 105.77 310.623 105.4 311.323 104.66C312.043 103.92 312.403 102.91 312.403 101.63ZM331.445 93.08C333.405 93.08 334.965 93.72 336.125 95C337.305 96.26 337.895 98 337.895 100.22V110H332.795V100.91C332.795 99.79 332.505 98.92 331.925 98.3C331.345 97.68 330.565 97.37 329.585 97.37C328.605 97.37 327.825 97.68 327.245 98.3C326.665 98.92 326.375 99.79 326.375 100.91V110H321.245V93.26H326.375V95.48C326.895 94.74 327.595 94.16 328.475 93.74C329.355 93.3 330.345 93.08 331.445 93.08ZM352.947 95.63C353.447 94.85 354.137 94.22 355.017 93.74C355.897 93.26 356.927 93.02 358.107 93.02C359.487 93.02 360.737 93.37 361.857 94.07C362.977 94.77 363.857 95.77 364.497 97.07C365.157 98.37 365.487 99.88 365.487 101.6C365.487 103.32 365.157 104.84 364.497 106.16C363.857 107.46 362.977 108.47 361.857 109.19C360.737 109.89 359.487 110.24 358.107 110.24C356.947 110.24 355.917 110 355.017 109.52C354.137 109.04 353.447 108.42 352.947 107.66V117.98H347.817V93.26H352.947V95.63ZM360.267 101.6C360.267 100.32 359.907 99.32 359.187 98.6C358.487 97.86 357.617 97.49 356.577 97.49C355.557 97.49 354.687 97.86 353.967 98.6C353.267 99.34 352.917 100.35 352.917 101.63C352.917 102.91 353.267 103.92 353.967 104.66C354.687 105.4 355.557 105.77 356.577 105.77C357.597 105.77 358.467 105.4 359.187 104.66C359.907 103.9 360.267 102.88 360.267 101.6ZM370.758 91.52C369.858 91.52 369.118 91.26 368.538 90.74C367.978 90.2 367.698 89.54 367.698 88.76C367.698 87.96 367.978 87.3 368.538 86.78C369.118 86.24 369.858 85.97 370.758 85.97C371.638 85.97 372.358 86.24 372.918 86.78C373.498 87.3 373.788 87.96 373.788 88.76C373.788 89.54 373.498 90.2 372.918 90.74C372.358 91.26 371.638 91.52 370.758 91.52ZM373.308 93.26V110H368.178V93.26H373.308ZM382.156 87.8V110H377.026V87.8H382.156ZM388.454 91.52C387.554 91.52 386.814 91.26 386.234 90.74C385.674 90.2 385.394 89.54 385.394 88.76C385.394 87.96 385.674 87.3 386.234 86.78C386.814 86.24 387.554 85.97 388.454 85.97C389.334 85.97 390.054 86.24 390.614 86.78C391.194 87.3 391.484 87.96 391.484 88.76C391.484 89.54 391.194 90.2 390.614 90.74C390.054 91.26 389.334 91.52 388.454 91.52ZM391.004 93.26V110H385.874V93.26H391.004ZM405.011 93.08C406.931 93.08 408.471 93.72 409.631 95C410.791 96.26 411.371 98 411.371 100.22V110H406.271V100.91C406.271 99.79 405.981 98.92 405.401 98.3C404.821 97.68 404.041 97.37 403.061 97.37C402.081 97.37 401.301 97.68 400.721 98.3C400.141 98.92 399.851 99.79 399.851 100.91V110H394.721V87.8H399.851V95.51C400.371 94.77 401.081 94.18 401.981 93.74C402.881 93.3 403.891 93.08 405.011 93.08ZM131.99 140.63C132.49 139.85 133.18 139.22 134.06 138.74C134.94 138.26 135.97 138.02 137.15 138.02C138.53 138.02 139.78 138.37 140.9 139.07C142.02 139.77 142.9 140.77 143.54 142.07C144.2 143.37 144.53 144.88 144.53 146.6C144.53 148.32 144.2 149.84 143.54 151.16C142.9 152.46 142.02 153.47 140.9 154.19C139.78 154.89 138.53 155.24 137.15 155.24C135.99 155.24 134.96 155 134.06 154.52C133.18 154.04 132.49 153.42 131.99 152.66V162.98H126.86V138.26H131.99V140.63ZM139.31 146.6C139.31 145.32 138.95 144.32 138.23 143.6C137.53 142.86 136.66 142.49 135.62 142.49C134.6 142.49 133.73 142.86 133.01 143.6C132.31 144.34 131.96 145.35 131.96 146.63C131.96 147.91 132.31 148.92 133.01 149.66C133.73 150.4 134.6 150.77 135.62 150.77C136.64 150.77 137.51 150.4 138.23 149.66C138.95 148.9 139.31 147.88 139.31 146.6ZM163.001 146.36C163.001 146.84 162.971 147.34 162.911 147.86H151.301C151.381 148.9 151.711 149.7 152.291 150.26C152.891 150.8 153.621 151.07 154.481 151.07C155.761 151.07 156.651 150.53 157.151 149.45H162.611C162.331 150.55 161.821 151.54 161.081 152.42C160.361 153.3 159.451 153.99 158.351 154.49C157.251 154.99 156.021 155.24 154.661 155.24C153.021 155.24 151.561 154.89 150.281 154.19C149.001 153.49 148.001 152.49 147.281 151.19C146.561 149.89 146.201 148.37 146.201 146.63C146.201 144.89 146.551 143.37 147.251 142.07C147.971 140.77 148.971 139.77 150.251 139.07C151.531 138.37 153.001 138.02 154.661 138.02C156.281 138.02 157.721 138.36 158.981 139.04C160.241 139.72 161.221 140.69 161.921 141.95C162.641 143.21 163.001 144.68 163.001 146.36ZM157.751 145.01C157.751 144.13 157.451 143.43 156.851 142.91C156.251 142.39 155.501 142.13 154.601 142.13C153.741 142.13 153.011 142.38 152.411 142.88C151.831 143.38 151.471 144.09 151.331 145.01H157.751ZM175.938 155L170.838 147.98V155H165.708V132.8H170.838V145.07L175.908 138.26H182.238L175.278 146.66L182.298 155H175.938ZM200.033 146.36C200.033 146.84 200.003 147.34 199.943 147.86H188.333C188.413 148.9 188.743 149.7 189.323 150.26C189.923 150.8 190.653 151.07 191.513 151.07C192.793 151.07 193.683 150.53 194.183 149.45H199.643C199.363 150.55 198.853 151.54 198.113 152.42C197.393 153.3 196.483 153.99 195.383 154.49C194.283 154.99 193.053 155.24 191.693 155.24C190.053 155.24 188.593 154.89 187.313 154.19C186.033 153.49 185.033 152.49 184.313 151.19C183.593 149.89 183.233 148.37 183.233 146.63C183.233 144.89 183.583 143.37 184.283 142.07C185.003 140.77 186.003 139.77 187.283 139.07C188.563 138.37 190.033 138.02 191.693 138.02C193.313 138.02 194.753 138.36 196.013 139.04C197.273 139.72 198.253 140.69 198.953 141.95C199.673 143.21 200.033 144.68 200.033 146.36ZM194.783 145.01C194.783 144.13 194.483 143.43 193.883 142.91C193.283 142.39 192.533 142.13 191.633 142.13C190.773 142.13 190.043 142.38 189.443 142.88C188.863 143.38 188.503 144.09 188.363 145.01H194.783ZM207.869 141.05C208.469 140.13 209.219 139.41 210.119 138.89C211.019 138.35 212.019 138.08 213.119 138.08V143.51H211.709C210.429 143.51 209.469 143.79 208.829 144.35C208.189 144.89 207.869 145.85 207.869 147.23V155H202.739V138.26H207.869V141.05ZM218.121 136.52C217.221 136.52 216.481 136.26 215.901 135.74C215.341 135.2 215.061 134.54 215.061 133.76C215.061 132.96 215.341 132.3 215.901 131.78C216.481 131.24 217.221 130.97 218.121 130.97C219.001 130.97 219.721 131.24 220.281 131.78C220.861 132.3 221.151 132.96 221.151 133.76C221.151 134.54 220.861 135.2 220.281 135.74C219.721 136.26 219.001 136.52 218.121 136.52ZM220.701 157.16C220.701 159.22 220.181 160.7 219.141 161.6C218.101 162.52 216.651 162.98 214.791 162.98H212.781V158.63H214.011C214.571 158.63 214.971 158.52 215.211 158.3C215.451 158.08 215.571 157.72 215.571 157.22V138.26H220.701V157.16ZM223.369 146.6C223.369 144.88 223.689 143.37 224.329 142.07C224.989 140.77 225.879 139.77 226.999 139.07C228.119 138.37 229.369 138.02 230.749 138.02C231.929 138.02 232.959 138.26 233.839 138.74C234.739 139.22 235.429 139.85 235.909 140.63V138.26H241.039V155H235.909V152.63C235.409 153.41 234.709 154.04 233.809 154.52C232.929 155 231.899 155.24 230.719 155.24C229.359 155.24 228.119 154.89 226.999 154.19C225.879 153.47 224.989 152.46 224.329 151.16C223.689 149.84 223.369 148.32 223.369 146.6ZM235.909 146.63C235.909 145.35 235.549 144.34 234.829 143.6C234.129 142.86 233.269 142.49 232.249 142.49C231.229 142.49 230.359 142.86 229.639 143.6C228.939 144.32 228.589 145.32 228.589 146.6C228.589 147.88 228.939 148.9 229.639 149.66C230.359 150.4 231.229 150.77 232.249 150.77C233.269 150.77 234.129 150.4 234.829 149.66C235.549 148.92 235.909 147.91 235.909 146.63ZM243.731 146.6C243.731 144.88 244.051 143.37 244.691 142.07C245.351 140.77 246.241 139.77 247.361 139.07C248.481 138.37 249.731 138.02 251.111 138.02C252.291 138.02 253.321 138.26 254.201 138.74C255.101 139.22 255.791 139.85 256.271 140.63V138.26H261.401V155H256.271V152.63C255.771 153.41 255.071 154.04 254.171 154.52C253.291 155 252.261 155.24 251.081 155.24C249.721 155.24 248.481 154.89 247.361 154.19C246.241 153.47 245.351 152.46 244.691 151.16C244.051 149.84 243.731 148.32 243.731 146.6ZM256.271 146.63C256.271 145.35 255.911 144.34 255.191 143.6C254.491 142.86 253.631 142.49 252.611 142.49C251.591 142.49 250.721 142.86 250.001 143.6C249.301 144.32 248.951 145.32 248.951 146.6C248.951 147.88 249.301 148.9 250.001 149.66C250.721 150.4 251.591 150.77 252.611 150.77C253.631 150.77 254.491 150.4 255.191 149.66C255.911 148.92 256.271 147.91 256.271 146.63ZM275.312 138.08C277.272 138.08 278.832 138.72 279.992 140C281.172 141.26 281.762 143 281.762 145.22V155H276.662V145.91C276.662 144.79 276.372 143.92 275.792 143.3C275.212 142.68 274.432 142.37 273.452 142.37C272.472 142.37 271.692 142.68 271.112 143.3C270.532 143.92 270.242 144.79 270.242 145.91V155H265.112V138.26H270.242V140.48C270.762 139.74 271.462 139.16 272.342 138.74C273.222 138.3 274.212 138.08 275.312 138.08ZM308.784 138.26L298.284 162.95H292.764L296.604 154.43L289.794 138.26H295.524L299.394 148.73L303.234 138.26H308.784ZM309.619 146.6C309.619 144.88 309.939 143.37 310.579 142.07C311.239 140.77 312.129 139.77 313.249 139.07C314.369 138.37 315.619 138.02 316.999 138.02C318.179 138.02 319.209 138.26 320.089 138.74C320.989 139.22 321.679 139.85 322.159 140.63V138.26H327.289V155H322.159V152.63C321.659 153.41 320.959 154.04 320.059 154.52C319.179 155 318.149 155.24 316.969 155.24C315.609 155.24 314.369 154.89 313.249 154.19C312.129 153.47 311.239 152.46 310.579 151.16C309.939 149.84 309.619 148.32 309.619 146.6ZM322.159 146.63C322.159 145.35 321.799 144.34 321.079 143.6C320.379 142.86 319.519 142.49 318.499 142.49C317.479 142.49 316.609 142.86 315.889 143.6C315.189 144.32 314.839 145.32 314.839 146.6C314.839 147.88 315.189 148.9 315.889 149.66C316.609 150.4 317.479 150.77 318.499 150.77C319.519 150.77 320.379 150.4 321.079 149.66C321.799 148.92 322.159 147.91 322.159 146.63ZM341.201 138.08C343.161 138.08 344.721 138.72 345.881 140C347.061 141.26 347.651 143 347.651 145.22V155H342.551V145.91C342.551 144.79 342.261 143.92 341.681 143.3C341.101 142.68 340.321 142.37 339.341 142.37C338.361 142.37 337.581 142.68 337.001 143.3C336.421 143.92 336.131 144.79 336.131 145.91V155H331.001V138.26H336.131V140.48C336.651 139.74 337.351 139.16 338.231 138.74C339.111 138.3 340.101 138.08 341.201 138.08ZM357.575 138.02C358.755 138.02 359.785 138.26 360.665 138.74C361.565 139.22 362.255 139.85 362.735 140.63V138.26H367.865V154.97C367.865 156.51 367.555 157.9 366.935 159.14C366.335 160.4 365.405 161.4 364.145 162.14C362.905 162.88 361.355 163.25 359.495 163.25C357.015 163.25 355.005 162.66 353.465 161.48C351.925 160.32 351.045 158.74 350.825 156.74H355.895C356.055 157.38 356.435 157.88 357.035 158.24C357.635 158.62 358.375 158.81 359.255 158.81C360.315 158.81 361.155 158.5 361.775 157.88C362.415 157.28 362.735 156.31 362.735 154.97V152.6C362.235 153.38 361.545 154.02 360.665 154.52C359.785 155 358.755 155.24 357.575 155.24C356.195 155.24 354.945 154.89 353.825 154.19C352.705 153.47 351.815 152.46 351.155 151.16C350.515 149.84 350.195 148.32 350.195 146.6C350.195 144.88 350.515 143.37 351.155 142.07C351.815 140.77 352.705 139.77 353.825 139.07C354.945 138.37 356.195 138.02 357.575 138.02ZM362.735 146.63C362.735 145.35 362.375 144.34 361.655 143.6C360.955 142.86 360.095 142.49 359.075 142.49C358.055 142.49 357.185 142.86 356.465 143.6C355.765 144.32 355.415 145.32 355.415 146.6C355.415 147.88 355.765 148.9 356.465 149.66C357.185 150.4 358.055 150.77 359.075 150.77C360.095 150.77 360.955 150.4 361.655 149.66C362.375 148.92 362.735 147.91 362.735 146.63ZM384.744 155.24C383.284 155.24 381.984 154.99 380.844 154.49C379.704 153.99 378.804 153.31 378.144 152.45C377.484 151.57 377.114 150.59 377.034 149.51H382.104C382.164 150.09 382.434 150.56 382.914 150.92C383.394 151.28 383.984 151.46 384.684 151.46C385.324 151.46 385.814 151.34 386.154 151.1C386.514 150.84 386.694 150.51 386.694 150.11C386.694 149.63 386.444 149.28 385.944 149.06C385.444 148.82 384.634 148.56 383.514 148.28C382.314 148 381.314 147.71 380.514 147.41C379.714 147.09 379.024 146.6 378.444 145.94C377.864 145.26 377.574 144.35 377.574 143.21C377.574 142.25 377.834 141.38 378.354 140.6C378.894 139.8 379.674 139.17 380.694 138.71C381.734 138.25 382.964 138.02 384.384 138.02C386.484 138.02 388.134 138.54 389.334 139.58C390.554 140.62 391.254 142 391.434 143.72H386.694C386.614 143.14 386.354 142.68 385.914 142.34C385.494 142 384.934 141.83 384.234 141.83C383.634 141.83 383.174 141.95 382.854 142.19C382.534 142.41 382.374 142.72 382.374 143.12C382.374 143.6 382.624 143.96 383.124 144.2C383.644 144.44 384.444 144.68 385.524 144.92C386.764 145.24 387.774 145.56 388.554 145.88C389.334 146.18 390.014 146.68 390.594 147.38C391.194 148.06 391.504 148.98 391.524 150.14C391.524 151.12 391.244 152 390.684 152.78C390.144 153.54 389.354 154.14 388.314 154.58C387.294 155.02 386.104 155.24 384.744 155.24ZM410.443 146.36C410.443 146.84 410.413 147.34 410.353 147.86H398.743C398.823 148.9 399.153 149.7 399.733 150.26C400.333 150.8 401.063 151.07 401.923 151.07C403.203 151.07 404.093 150.53 404.593 149.45H410.053C409.773 150.55 409.263 151.54 408.523 152.42C407.803 153.3 406.893 153.99 405.793 154.49C404.693 154.99 403.463 155.24 402.103 155.24C400.463 155.24 399.003 154.89 397.723 154.19C396.443 153.49 395.443 152.49 394.723 151.19C394.003 149.89 393.643 148.37 393.643 146.63C393.643 144.89 393.993 143.37 394.693 142.07C395.413 140.77 396.413 139.77 397.693 139.07C398.973 138.37 400.443 138.02 402.103 138.02C403.723 138.02 405.163 138.36 406.423 139.04C407.683 139.72 408.663 140.69 409.363 141.95C410.083 143.21 410.443 144.68 410.443 146.36ZM405.193 145.01C405.193 144.13 404.893 143.43 404.293 142.91C403.693 142.39 402.943 142.13 402.043 142.13C401.183 142.13 400.453 142.38 399.853 142.88C399.273 143.38 398.913 144.09 398.773 145.01H405.193ZM419.959 155.24C418.499 155.24 417.199 154.99 416.059 154.49C414.919 153.99 414.019 153.31 413.359 152.45C412.699 151.57 412.329 150.59 412.249 149.51H417.319C417.379 150.09 417.649 150.56 418.129 150.92C418.609 151.28 419.199 151.46 419.899 151.46C420.539 151.46 421.029 151.34 421.369 151.1C421.729 150.84 421.909 150.51 421.909 150.11C421.909 149.63 421.659 149.28 421.159 149.06C420.659 148.82 419.849 148.56 418.729 148.28C417.529 148 416.529 147.71 415.729 147.41C414.929 147.09 414.239 146.6 413.659 145.94C413.079 145.26 412.789 144.35 412.789 143.21C412.789 142.25 413.049 141.38 413.569 140.6C414.109 139.8 414.889 139.17 415.909 138.71C416.949 138.25 418.179 138.02 419.599 138.02C421.699 138.02 423.349 138.54 424.549 139.58C425.769 140.62 426.469 142 426.649 143.72H421.909C421.829 143.14 421.569 142.68 421.129 142.34C420.709 142 420.149 141.83 419.449 141.83C418.849 141.83 418.389 141.95 418.069 142.19C417.749 142.41 417.589 142.72 417.589 143.12C417.589 143.6 417.839 143.96 418.339 144.2C418.859 144.44 419.659 144.68 420.739 144.92C421.979 145.24 422.989 145.56 423.769 145.88C424.549 146.18 425.229 146.68 425.809 147.38C426.409 148.06 426.719 148.98 426.739 150.14C426.739 151.12 426.459 152 425.899 152.78C425.359 153.54 424.569 154.14 423.529 154.58C422.509 155.02 421.319 155.24 419.959 155.24ZM446.408 138.26V155H441.278V152.72C440.758 153.46 440.048 154.06 439.148 154.52C438.268 154.96 437.288 155.18 436.208 155.18C434.928 155.18 433.798 154.9 432.818 154.34C431.838 153.76 431.078 152.93 430.538 151.85C429.998 150.77 429.728 149.5 429.728 148.04V138.26H434.828V147.35C434.828 148.47 435.118 149.34 435.698 149.96C436.278 150.58 437.058 150.89 438.038 150.89C439.038 150.89 439.828 150.58 440.408 149.96C440.988 149.34 441.278 148.47 441.278 147.35V138.26H446.408ZM449.072 146.6C449.072 144.88 449.392 143.37 450.032 142.07C450.692 140.77 451.582 139.77 452.702 139.07C453.822 138.37 455.072 138.02 456.452 138.02C457.632 138.02 458.662 138.26 459.542 138.74C460.442 139.22 461.132 139.85 461.612 140.63V138.26H466.742V155H461.612V152.63C461.112 153.41 460.412 154.04 459.512 154.52C458.632 155 457.602 155.24 456.422 155.24C455.062 155.24 453.822 154.89 452.702 154.19C451.582 153.47 450.692 152.46 450.032 151.16C449.392 149.84 449.072 148.32 449.072 146.6ZM461.612 146.63C461.612 145.35 461.252 144.34 460.532 143.6C459.832 142.86 458.972 142.49 457.952 142.49C456.932 142.49 456.062 142.86 455.342 143.6C454.642 144.32 454.292 145.32 454.292 146.6C454.292 147.88 454.642 148.9 455.342 149.66C456.062 150.4 456.932 150.77 457.952 150.77C458.972 150.77 459.832 150.4 460.532 149.66C461.252 148.92 461.612 147.91 461.612 146.63ZM473.034 136.52C472.134 136.52 471.394 136.26 470.814 135.74C470.254 135.2 469.974 134.54 469.974 133.76C469.974 132.96 470.254 132.3 470.814 131.78C471.394 131.24 472.134 130.97 473.034 130.97C473.914 130.97 474.634 131.24 475.194 131.78C475.774 132.3 476.064 132.96 476.064 133.76C476.064 134.54 475.774 135.2 475.194 135.74C474.634 136.26 473.914 136.52 473.034 136.52ZM475.584 138.26V155H470.454V138.26H475.584ZM125.84 191.6C125.84 189.88 126.16 188.37 126.8 187.07C127.46 185.77 128.35 184.77 129.47 184.07C130.59 183.37 131.84 183.02 133.22 183.02C134.32 183.02 135.32 183.25 136.22 183.71C137.14 184.17 137.86 184.79 138.38 185.57V177.8H143.51V200H138.38V197.6C137.9 198.4 137.21 199.04 136.31 199.52C135.43 200 134.4 200.24 133.22 200.24C131.84 200.24 130.59 199.89 129.47 199.19C128.35 198.47 127.46 197.46 126.8 196.16C126.16 194.84 125.84 193.32 125.84 191.6ZM138.38 191.63C138.38 190.35 138.02 189.34 137.3 188.6C136.6 187.86 135.74 187.49 134.72 187.49C133.7 187.49 132.83 187.86 132.11 188.6C131.41 189.32 131.06 190.32 131.06 191.6C131.06 192.88 131.41 193.9 132.11 194.66C132.83 195.4 133.7 195.77 134.72 195.77C135.74 195.77 136.6 195.4 137.3 194.66C138.02 193.92 138.38 192.91 138.38 191.63ZM163.001 191.36C163.001 191.84 162.971 192.34 162.911 192.86H151.301C151.381 193.9 151.711 194.7 152.291 195.26C152.891 195.8 153.621 196.07 154.481 196.07C155.761 196.07 156.651 195.53 157.151 194.45H162.611C162.331 195.55 161.821 196.54 161.081 197.42C160.361 198.3 159.451 198.99 158.351 199.49C157.251 199.99 156.021 200.24 154.661 200.24C153.021 200.24 151.561 199.89 150.281 199.19C149.001 198.49 148.001 197.49 147.281 196.19C146.561 194.89 146.201 193.37 146.201 191.63C146.201 189.89 146.551 188.37 147.251 187.07C147.971 185.77 148.971 184.77 150.251 184.07C151.531 183.37 153.001 183.02 154.661 183.02C156.281 183.02 157.721 183.36 158.981 184.04C160.241 184.72 161.221 185.69 161.921 186.95C162.641 188.21 163.001 189.68 163.001 191.36ZM157.751 190.01C157.751 189.13 157.451 188.43 156.851 187.91C156.251 187.39 155.501 187.13 154.601 187.13C153.741 187.13 153.011 187.38 152.411 187.88C151.831 188.38 151.471 189.09 151.331 190.01H157.751ZM175.908 183.08C177.868 183.08 179.428 183.72 180.588 185C181.768 186.26 182.358 188 182.358 190.22V200H177.258V190.91C177.258 189.79 176.968 188.92 176.388 188.3C175.808 187.68 175.028 187.37 174.048 187.37C173.068 187.37 172.288 187.68 171.708 188.3C171.128 188.92 170.838 189.79 170.838 190.91V200H165.708V183.26H170.838V185.48C171.358 184.74 172.058 184.16 172.938 183.74C173.818 183.3 174.808 183.08 175.908 183.08ZM192.283 183.02C193.463 183.02 194.493 183.26 195.373 183.74C196.273 184.22 196.963 184.85 197.443 185.63V183.26H202.573V199.97C202.573 201.51 202.263 202.9 201.643 204.14C201.043 205.4 200.113 206.4 198.853 207.14C197.613 207.88 196.063 208.25 194.203 208.25C191.723 208.25 189.713 207.66 188.173 206.48C186.633 205.32 185.753 203.74 185.533 201.74H190.603C190.763 202.38 191.143 202.88 191.743 203.24C192.343 203.62 193.083 203.81 193.963 203.81C195.023 203.81 195.863 203.5 196.483 202.88C197.123 202.28 197.443 201.31 197.443 199.97V197.6C196.943 198.38 196.253 199.02 195.373 199.52C194.493 200 193.463 200.24 192.283 200.24C190.903 200.24 189.653 199.89 188.533 199.19C187.413 198.47 186.523 197.46 185.863 196.16C185.223 194.84 184.903 193.32 184.903 191.6C184.903 189.88 185.223 188.37 185.863 187.07C186.523 185.77 187.413 184.77 188.533 184.07C189.653 183.37 190.903 183.02 192.283 183.02ZM197.443 191.63C197.443 190.35 197.083 189.34 196.363 188.6C195.663 187.86 194.803 187.49 193.783 187.49C192.763 187.49 191.893 187.86 191.173 188.6C190.473 189.32 190.123 190.32 190.123 191.6C190.123 192.88 190.473 193.9 191.173 194.66C191.893 195.4 192.763 195.77 193.783 195.77C194.803 195.77 195.663 195.4 196.363 194.66C197.083 193.92 197.443 192.91 197.443 191.63ZM205.264 191.6C205.264 189.88 205.584 188.37 206.224 187.07C206.884 185.77 207.774 184.77 208.894 184.07C210.014 183.37 211.264 183.02 212.644 183.02C213.824 183.02 214.854 183.26 215.734 183.74C216.634 184.22 217.324 184.85 217.804 185.63V183.26H222.934V200H217.804V197.63C217.304 198.41 216.604 199.04 215.704 199.52C214.824 200 213.794 200.24 212.614 200.24C211.254 200.24 210.014 199.89 208.894 199.19C207.774 198.47 206.884 197.46 206.224 196.16C205.584 194.84 205.264 193.32 205.264 191.6ZM217.804 191.63C217.804 190.35 217.444 189.34 216.724 188.6C216.024 187.86 215.164 187.49 214.144 187.49C213.124 187.49 212.254 187.86 211.534 188.6C210.834 189.32 210.484 190.32 210.484 191.6C210.484 192.88 210.834 193.9 211.534 194.66C212.254 195.4 213.124 195.77 214.144 195.77C215.164 195.77 216.024 195.4 216.724 194.66C217.444 193.92 217.804 192.91 217.804 191.63ZM236.845 183.08C238.805 183.08 240.365 183.72 241.525 185C242.705 186.26 243.295 188 243.295 190.22V200H238.195V190.91C238.195 189.79 237.905 188.92 237.325 188.3C236.745 187.68 235.965 187.37 234.985 187.37C234.005 187.37 233.225 187.68 232.645 188.3C232.065 188.92 231.775 189.79 231.775 190.91V200H226.645V183.26H231.775V185.48C232.295 184.74 232.995 184.16 233.875 183.74C234.755 183.3 235.745 183.08 236.845 183.08ZM263.447 200L258.347 192.98V200H253.217V177.8H258.347V190.07L263.417 183.26H269.747L262.787 191.66L269.807 200H263.447ZM276.892 186.05C277.492 185.13 278.242 184.41 279.142 183.89C280.042 183.35 281.042 183.08 282.142 183.08V188.51H280.732C279.452 188.51 278.492 188.79 277.852 189.35C277.212 189.89 276.892 190.85 276.892 192.23V200H271.762V183.26H276.892V186.05ZM287.174 181.52C286.274 181.52 285.534 181.26 284.954 180.74C284.394 180.2 284.114 179.54 284.114 178.76C284.114 177.96 284.394 177.3 284.954 176.78C285.534 176.24 286.274 175.97 287.174 175.97C288.054 175.97 288.774 176.24 289.334 176.78C289.914 177.3 290.204 177.96 290.204 178.76C290.204 179.54 289.914 180.2 289.334 180.74C288.774 181.26 288.054 181.52 287.174 181.52ZM289.724 183.26V200H284.594V183.26H289.724ZM302.772 195.65V200H300.162C298.302 200 296.852 199.55 295.812 198.65C294.772 197.73 294.252 196.24 294.252 194.18V187.52H292.212V183.26H294.252V179.18H299.382V183.26H302.742V187.52H299.382V194.24C299.382 194.74 299.502 195.1 299.742 195.32C299.982 195.54 300.382 195.65 300.942 195.65H302.772ZM321.41 191.36C321.41 191.84 321.38 192.34 321.32 192.86H309.71C309.79 193.9 310.12 194.7 310.7 195.26C311.3 195.8 312.03 196.07 312.89 196.07C314.17 196.07 315.06 195.53 315.56 194.45H321.02C320.74 195.55 320.23 196.54 319.49 197.42C318.77 198.3 317.86 198.99 316.76 199.49C315.66 199.99 314.43 200.24 313.07 200.24C311.43 200.24 309.97 199.89 308.69 199.19C307.41 198.49 306.41 197.49 305.69 196.19C304.97 194.89 304.61 193.37 304.61 191.63C304.61 189.89 304.96 188.37 305.66 187.07C306.38 185.77 307.38 184.77 308.66 184.07C309.94 183.37 311.41 183.02 313.07 183.02C314.69 183.02 316.13 183.36 317.39 184.04C318.65 184.72 319.63 185.69 320.33 186.95C321.05 188.21 321.41 189.68 321.41 191.36ZM316.16 190.01C316.16 189.13 315.86 188.43 315.26 187.91C314.66 187.39 313.91 187.13 313.01 187.13C312.15 187.13 311.42 187.38 310.82 187.88C310.24 188.38 309.88 189.09 309.74 190.01H316.16ZM329.246 186.05C329.846 185.13 330.596 184.41 331.496 183.89C332.396 183.35 333.396 183.08 334.496 183.08V188.51H333.086C331.806 188.51 330.846 188.79 330.206 189.35C329.566 189.89 329.246 190.85 329.246 192.23V200H324.116V183.26H329.246V186.05ZM339.528 181.52C338.628 181.52 337.888 181.26 337.308 180.74C336.748 180.2 336.468 179.54 336.468 178.76C336.468 177.96 336.748 177.3 337.308 176.78C337.888 176.24 338.628 175.97 339.528 175.97C340.408 175.97 341.128 176.24 341.688 176.78C342.268 177.3 342.558 177.96 342.558 178.76C342.558 179.54 342.268 180.2 341.688 180.74C341.128 181.26 340.408 181.52 339.528 181.52ZM342.078 183.26V200H336.948V183.26H342.078ZM344.776 191.6C344.776 189.88 345.096 188.37 345.736 187.07C346.396 185.77 347.286 184.77 348.406 184.07C349.526 183.37 350.776 183.02 352.156 183.02C353.336 183.02 354.366 183.26 355.246 183.74C356.146 184.22 356.836 184.85 357.316 185.63V183.26H362.446V200H357.316V197.63C356.816 198.41 356.116 199.04 355.216 199.52C354.336 200 353.306 200.24 352.126 200.24C350.766 200.24 349.526 199.89 348.406 199.19C347.286 198.47 346.396 197.46 345.736 196.16C345.096 194.84 344.776 193.32 344.776 191.6ZM357.316 191.63C357.316 190.35 356.956 189.34 356.236 188.6C355.536 187.86 354.676 187.49 353.656 187.49C352.636 187.49 351.766 187.86 351.046 188.6C350.346 189.32 349.996 190.32 349.996 191.6C349.996 192.88 350.346 193.9 351.046 194.66C351.766 195.4 352.636 195.77 353.656 195.77C354.676 195.77 355.536 195.4 356.236 194.66C356.956 193.92 357.316 192.91 357.316 191.63ZM371.494 191.6C371.494 189.88 371.814 188.37 372.454 187.07C373.114 185.77 374.004 184.77 375.124 184.07C376.244 183.37 377.494 183.02 378.874 183.02C379.974 183.02 380.974 183.25 381.874 183.71C382.794 184.17 383.514 184.79 384.034 185.57V177.8H389.164V200H384.034V197.6C383.554 198.4 382.864 199.04 381.964 199.52C381.084 200 380.054 200.24 378.874 200.24C377.494 200.24 376.244 199.89 375.124 199.19C374.004 198.47 373.114 197.46 372.454 196.16C371.814 194.84 371.494 193.32 371.494 191.6ZM384.034 191.63C384.034 190.35 383.674 189.34 382.954 188.6C382.254 187.86 381.394 187.49 380.374 187.49C379.354 187.49 378.484 187.86 377.764 188.6C377.064 189.32 376.714 190.32 376.714 191.6C376.714 192.88 377.064 193.9 377.764 194.66C378.484 195.4 379.354 195.77 380.374 195.77C381.394 195.77 382.254 195.4 382.954 194.66C383.674 193.92 384.034 192.91 384.034 191.63ZM391.856 191.6C391.856 189.88 392.176 188.37 392.816 187.07C393.476 185.77 394.366 184.77 395.486 184.07C396.606 183.37 397.856 183.02 399.236 183.02C400.416 183.02 401.446 183.26 402.326 183.74C403.226 184.22 403.916 184.85 404.396 185.63V183.26H409.526V200H404.396V197.63C403.896 198.41 403.196 199.04 402.296 199.52C401.416 200 400.386 200.24 399.206 200.24C397.846 200.24 396.606 199.89 395.486 199.19C394.366 198.47 393.476 197.46 392.816 196.16C392.176 194.84 391.856 193.32 391.856 191.6ZM404.396 191.63C404.396 190.35 404.036 189.34 403.316 188.6C402.616 187.86 401.756 187.49 400.736 187.49C399.716 187.49 398.846 187.86 398.126 188.6C397.426 189.32 397.076 190.32 397.076 191.6C397.076 192.88 397.426 193.9 398.126 194.66C398.846 195.4 399.716 195.77 400.736 195.77C401.756 195.77 402.616 195.4 403.316 194.66C404.036 193.92 404.396 192.91 404.396 191.63ZM423.437 183.08C425.397 183.08 426.957 183.72 428.117 185C429.297 186.26 429.887 188 429.887 190.22V200H424.787V190.91C424.787 189.79 424.497 188.92 423.917 188.3C423.337 187.68 422.557 187.37 421.577 187.37C420.597 187.37 419.817 187.68 419.237 188.3C418.657 188.92 418.367 189.79 418.367 190.91V200H413.237V183.26H418.367V185.48C418.887 184.74 419.587 184.16 420.467 183.74C421.347 183.3 422.337 183.08 423.437 183.08ZM444.939 185.63C445.419 184.85 446.109 184.22 447.009 183.74C447.909 183.26 448.939 183.02 450.099 183.02C451.479 183.02 452.729 183.37 453.849 184.07C454.969 184.77 455.849 185.77 456.489 187.07C457.149 188.37 457.479 189.88 457.479 191.6C457.479 193.32 457.149 194.84 456.489 196.16C455.849 197.46 454.969 198.47 453.849 199.19C452.729 199.89 451.479 200.24 450.099 200.24C448.919 200.24 447.889 200.01 447.009 199.55C446.129 199.07 445.439 198.44 444.939 197.66V200H439.809V177.8H444.939V185.63ZM452.259 191.6C452.259 190.32 451.899 189.32 451.179 188.6C450.479 187.86 449.609 187.49 448.569 187.49C447.549 187.49 446.679 187.86 445.959 188.6C445.259 189.34 444.909 190.35 444.909 191.63C444.909 192.91 445.259 193.92 445.959 194.66C446.679 195.4 447.549 195.77 448.569 195.77C449.589 195.77 450.459 195.4 451.179 194.66C451.899 193.9 452.259 192.88 452.259 191.6ZM462.751 181.52C461.851 181.52 461.111 181.26 460.531 180.74C459.971 180.2 459.691 179.54 459.691 178.76C459.691 177.96 459.971 177.3 460.531 176.78C461.111 176.24 461.851 175.97 462.751 175.97C463.631 175.97 464.351 176.24 464.911 176.78C465.491 177.3 465.781 177.96 465.781 178.76C465.781 179.54 465.491 180.2 464.911 180.74C464.351 181.26 463.631 181.52 462.751 181.52ZM465.301 183.26V200H460.171V183.26H465.301ZM467.998 191.6C467.998 189.88 468.318 188.37 468.958 187.07C469.618 185.77 470.508 184.77 471.628 184.07C472.748 183.37 473.998 183.02 475.378 183.02C476.478 183.02 477.478 183.25 478.378 183.71C479.298 184.17 480.018 184.79 480.538 185.57V177.8H485.668V200H480.538V197.6C480.058 198.4 479.368 199.04 478.468 199.52C477.588 200 476.558 200.24 475.378 200.24C473.998 200.24 472.748 199.89 471.628 199.19C470.508 198.47 469.618 197.46 468.958 196.16C468.318 194.84 467.998 193.32 467.998 191.6ZM480.538 191.63C480.538 190.35 480.178 189.34 479.458 188.6C478.758 187.86 477.898 187.49 476.878 187.49C475.858 187.49 474.988 187.86 474.268 188.6C473.568 189.32 473.218 190.32 473.218 191.6C473.218 192.88 473.568 193.9 474.268 194.66C474.988 195.4 475.858 195.77 476.878 195.77C477.898 195.77 478.758 195.4 479.458 194.66C480.178 193.92 480.538 192.91 480.538 191.63ZM488.36 191.6C488.36 189.88 488.68 188.37 489.32 187.07C489.98 185.77 490.87 184.77 491.99 184.07C493.11 183.37 494.36 183.02 495.74 183.02C496.92 183.02 497.95 183.26 498.83 183.74C499.73 184.22 500.42 184.85 500.9 185.63V183.26H506.03V200H500.9V197.63C500.4 198.41 499.7 199.04 498.8 199.52C497.92 200 496.89 200.24 495.71 200.24C494.35 200.24 493.11 199.89 491.99 199.19C490.87 198.47 489.98 197.46 489.32 196.16C488.68 194.84 488.36 193.32 488.36 191.6ZM500.9 191.63C500.9 190.35 500.54 189.34 499.82 188.6C499.12 187.86 498.26 187.49 497.24 187.49C496.22 187.49 495.35 187.86 494.63 188.6C493.93 189.32 493.58 190.32 493.58 191.6C493.58 192.88 493.93 193.9 494.63 194.66C495.35 195.4 496.22 195.77 497.24 195.77C498.26 195.77 499.12 195.4 499.82 194.66C500.54 193.92 500.9 192.91 500.9 191.63ZM519.941 183.08C521.901 183.08 523.461 183.72 524.621 185C525.801 186.26 526.391 188 526.391 190.22V200H521.291V190.91C521.291 189.79 521.001 188.92 520.421 188.3C519.841 187.68 519.061 187.37 518.081 187.37C517.101 187.37 516.321 187.68 515.741 188.3C515.161 188.92 514.871 189.79 514.871 190.91V200H509.741V183.26H514.871V185.48C515.391 184.74 516.091 184.16 516.971 183.74C517.851 183.3 518.841 183.08 519.941 183.08ZM536.316 183.02C537.496 183.02 538.526 183.26 539.406 183.74C540.306 184.22 540.996 184.85 541.476 185.63V183.26H546.606V199.97C546.606 201.51 546.296 202.9 545.676 204.14C545.076 205.4 544.146 206.4 542.886 207.14C541.646 207.88 540.096 208.25 538.236 208.25C535.756 208.25 533.746 207.66 532.206 206.48C530.666 205.32 529.786 203.74 529.566 201.74H534.636C534.796 202.38 535.176 202.88 535.776 203.24C536.376 203.62 537.116 203.81 537.996 203.81C539.056 203.81 539.896 203.5 540.516 202.88C541.156 202.28 541.476 201.31 541.476 199.97V197.6C540.976 198.38 540.286 199.02 539.406 199.52C538.526 200 537.496 200.24 536.316 200.24C534.936 200.24 533.686 199.89 532.566 199.19C531.446 198.47 530.556 197.46 529.896 196.16C529.256 194.84 528.936 193.32 528.936 191.6C528.936 189.88 529.256 188.37 529.896 187.07C530.556 185.77 531.446 184.77 532.566 184.07C533.686 183.37 534.936 183.02 536.316 183.02ZM541.476 191.63C541.476 190.35 541.116 189.34 540.396 188.6C539.696 187.86 538.836 187.49 537.816 187.49C536.796 187.49 535.926 187.86 535.206 188.6C534.506 189.32 534.156 190.32 534.156 191.6C534.156 192.88 534.506 193.9 535.206 194.66C535.926 195.4 536.796 195.77 537.816 195.77C538.836 195.77 539.696 195.4 540.396 194.66C541.116 193.92 541.476 192.91 541.476 191.63ZM143.96 228.26L133.46 252.95H127.94L131.78 244.43L124.97 228.26H130.7L134.57 238.73L138.41 228.26H143.96ZM144.795 236.6C144.795 234.88 145.115 233.37 145.755 232.07C146.415 230.77 147.305 229.77 148.425 229.07C149.545 228.37 150.795 228.02 152.175 228.02C153.355 228.02 154.385 228.26 155.265 228.74C156.165 229.22 156.855 229.85 157.335 230.63V228.26H162.465V245H157.335V242.63C156.835 243.41 156.135 244.04 155.235 244.52C154.355 245 153.325 245.24 152.145 245.24C150.785 245.24 149.545 244.89 148.425 244.19C147.305 243.47 146.415 242.46 145.755 241.16C145.115 239.84 144.795 238.32 144.795 236.6ZM157.335 236.63C157.335 235.35 156.975 234.34 156.255 233.6C155.555 232.86 154.695 232.49 153.675 232.49C152.655 232.49 151.785 232.86 151.065 233.6C150.365 234.32 150.015 235.32 150.015 236.6C150.015 237.88 150.365 238.9 151.065 239.66C151.785 240.4 152.655 240.77 153.675 240.77C154.695 240.77 155.555 240.4 156.255 239.66C156.975 238.92 157.335 237.91 157.335 236.63ZM176.376 228.08C178.336 228.08 179.896 228.72 181.056 230C182.236 231.26 182.826 233 182.826 235.22V245H177.726V235.91C177.726 234.79 177.436 233.92 176.856 233.3C176.276 232.68 175.496 232.37 174.516 232.37C173.536 232.37 172.756 232.68 172.176 233.3C171.596 233.92 171.306 234.79 171.306 235.91V245H166.176V228.26H171.306V230.48C171.826 229.74 172.526 229.16 173.406 228.74C174.286 228.3 175.276 228.08 176.376 228.08ZM192.751 228.02C193.931 228.02 194.961 228.26 195.841 228.74C196.741 229.22 197.431 229.85 197.911 230.63V228.26H203.041V244.97C203.041 246.51 202.731 247.9 202.111 249.14C201.511 250.4 200.581 251.4 199.321 252.14C198.081 252.88 196.531 253.25 194.671 253.25C192.191 253.25 190.181 252.66 188.641 251.48C187.101 250.32 186.221 248.74 186.001 246.74H191.071C191.231 247.38 191.611 247.88 192.211 248.24C192.811 248.62 193.551 248.81 194.431 248.81C195.491 248.81 196.331 248.5 196.951 247.88C197.591 247.28 197.911 246.31 197.911 244.97V242.6C197.411 243.38 196.721 244.02 195.841 244.52C194.961 245 193.931 245.24 192.751 245.24C191.371 245.24 190.121 244.89 189.001 244.19C187.881 243.47 186.991 242.46 186.331 241.16C185.691 239.84 185.371 238.32 185.371 236.6C185.371 234.88 185.691 233.37 186.331 232.07C186.991 230.77 187.881 229.77 189.001 229.07C190.121 228.37 191.371 228.02 192.751 228.02ZM197.911 236.63C197.911 235.35 197.551 234.34 196.831 233.6C196.131 232.86 195.271 232.49 194.251 232.49C193.231 232.49 192.361 232.86 191.641 233.6C190.941 234.32 190.591 235.32 190.591 236.6C190.591 237.88 190.941 238.9 191.641 239.66C192.361 240.4 193.231 240.77 194.251 240.77C195.271 240.77 196.131 240.4 196.831 239.66C197.551 238.92 197.911 237.91 197.911 236.63ZM212.09 236.6C212.09 234.88 212.41 233.37 213.05 232.07C213.71 230.77 214.6 229.77 215.72 229.07C216.84 228.37 218.09 228.02 219.47 228.02C220.65 228.02 221.68 228.26 222.56 228.74C223.46 229.22 224.15 229.85 224.63 230.63V228.26H229.76V245H224.63V242.63C224.13 243.41 223.43 244.04 222.53 244.52C221.65 245 220.62 245.24 219.44 245.24C218.08 245.24 216.84 244.89 215.72 244.19C214.6 243.47 213.71 242.46 213.05 241.16C212.41 239.84 212.09 238.32 212.09 236.6ZM224.63 236.63C224.63 235.35 224.27 234.34 223.55 233.6C222.85 232.86 221.99 232.49 220.97 232.49C219.95 232.49 219.08 232.86 218.36 233.6C217.66 234.32 217.31 235.32 217.31 236.6C217.31 237.88 217.66 238.9 218.36 239.66C219.08 240.4 219.95 240.77 220.97 240.77C221.99 240.77 222.85 240.4 223.55 239.66C224.27 238.92 224.63 237.91 224.63 236.63ZM243.671 228.08C245.631 228.08 247.191 228.72 248.351 230C249.531 231.26 250.121 233 250.121 235.22V245H245.021V235.91C245.021 234.79 244.731 233.92 244.151 233.3C243.571 232.68 242.791 232.37 241.811 232.37C240.831 232.37 240.051 232.68 239.471 233.3C238.891 233.92 238.601 234.79 238.601 235.91V245H233.471V228.26H238.601V230.48C239.121 229.74 239.821 229.16 240.701 228.74C241.581 228.3 242.571 228.08 243.671 228.08ZM252.666 236.6C252.666 234.88 252.986 233.37 253.626 232.07C254.286 230.77 255.176 229.77 256.296 229.07C257.416 228.37 258.666 228.02 260.046 228.02C261.146 228.02 262.146 228.25 263.046 228.71C263.966 229.17 264.686 229.79 265.206 230.57V222.8H270.336V245H265.206V242.6C264.726 243.4 264.036 244.04 263.136 244.52C262.256 245 261.226 245.24 260.046 245.24C258.666 245.24 257.416 244.89 256.296 244.19C255.176 243.47 254.286 242.46 253.626 241.16C252.986 239.84 252.666 238.32 252.666 236.6ZM265.206 236.63C265.206 235.35 264.846 234.34 264.126 233.6C263.426 232.86 262.566 232.49 261.546 232.49C260.526 232.49 259.656 232.86 258.936 233.6C258.236 234.32 257.886 235.32 257.886 236.6C257.886 237.88 258.236 238.9 258.936 239.66C259.656 240.4 260.526 240.77 261.546 240.77C262.566 240.77 263.426 240.4 264.126 239.66C264.846 238.92 265.206 237.91 265.206 236.63ZM273.028 236.6C273.028 234.88 273.348 233.37 273.988 232.07C274.648 230.77 275.538 229.77 276.658 229.07C277.778 228.37 279.028 228.02 280.408 228.02C281.588 228.02 282.618 228.26 283.498 228.74C284.398 229.22 285.088 229.85 285.568 230.63V228.26H290.698V245H285.568V242.63C285.068 243.41 284.368 244.04 283.468 244.52C282.588 245 281.558 245.24 280.378 245.24C279.018 245.24 277.778 244.89 276.658 244.19C275.538 243.47 274.648 242.46 273.988 241.16C273.348 239.84 273.028 238.32 273.028 236.6ZM285.568 236.63C285.568 235.35 285.208 234.34 284.488 233.6C283.788 232.86 282.928 232.49 281.908 232.49C280.888 232.49 280.018 232.86 279.298 233.6C278.598 234.32 278.248 235.32 278.248 236.6C278.248 237.88 278.598 238.9 279.298 239.66C280.018 240.4 280.888 240.77 281.908 240.77C282.928 240.77 283.788 240.4 284.488 239.66C285.208 238.92 285.568 237.91 285.568 236.63ZM307.126 228.02C308.306 228.02 309.336 228.26 310.216 228.74C311.116 229.22 311.806 229.85 312.286 230.63V228.26H317.416V244.97C317.416 246.51 317.106 247.9 316.486 249.14C315.886 250.4 314.956 251.4 313.696 252.14C312.456 252.88 310.906 253.25 309.046 253.25C306.566 253.25 304.556 252.66 303.016 251.48C301.476 250.32 300.596 248.74 300.376 246.74H305.446C305.606 247.38 305.986 247.88 306.586 248.24C307.186 248.62 307.926 248.81 308.806 248.81C309.866 248.81 310.706 248.5 311.326 247.88C311.966 247.28 312.286 246.31 312.286 244.97V242.6C311.786 243.38 311.096 244.02 310.216 244.52C309.336 245 308.306 245.24 307.126 245.24C305.746 245.24 304.496 244.89 303.376 244.19C302.256 243.47 301.366 242.46 300.706 241.16C300.066 239.84 299.746 238.32 299.746 236.6C299.746 234.88 300.066 233.37 300.706 232.07C301.366 230.77 302.256 229.77 303.376 229.07C304.496 228.37 305.746 228.02 307.126 228.02ZM312.286 236.63C312.286 235.35 311.926 234.34 311.206 233.6C310.506 232.86 309.646 232.49 308.626 232.49C307.606 232.49 306.736 232.86 306.016 233.6C305.316 234.32 304.966 235.32 304.966 236.6C304.966 237.88 305.316 238.9 306.016 239.66C306.736 240.4 307.606 240.77 308.626 240.77C309.646 240.77 310.506 240.4 311.206 239.66C311.926 238.92 312.286 237.91 312.286 236.63ZM336.908 236.36C336.908 236.84 336.878 237.34 336.818 237.86H325.208C325.288 238.9 325.618 239.7 326.198 240.26C326.798 240.8 327.528 241.07 328.388 241.07C329.668 241.07 330.558 240.53 331.058 239.45H336.518C336.238 240.55 335.728 241.54 334.988 242.42C334.268 243.3 333.358 243.99 332.258 244.49C331.158 244.99 329.928 245.24 328.568 245.24C326.928 245.24 325.468 244.89 324.188 244.19C322.908 243.49 321.908 242.49 321.188 241.19C320.468 239.89 320.108 238.37 320.108 236.63C320.108 234.89 320.458 233.37 321.158 232.07C321.878 230.77 322.878 229.77 324.158 229.07C325.438 228.37 326.908 228.02 328.568 228.02C330.188 228.02 331.628 228.36 332.888 229.04C334.148 229.72 335.128 230.69 335.828 231.95C336.548 233.21 336.908 234.68 336.908 236.36ZM331.658 235.01C331.658 234.13 331.358 233.43 330.758 232.91C330.158 232.39 329.408 232.13 328.508 232.13C327.648 232.13 326.918 232.38 326.318 232.88C325.738 233.38 325.378 234.09 325.238 235.01H331.658ZM344.744 222.8V245H339.614V222.8H344.744ZM364.992 228.26V245H359.862V242.72C359.342 243.46 358.632 244.06 357.732 244.52C356.852 244.96 355.872 245.18 354.792 245.18C353.512 245.18 352.382 244.9 351.402 244.34C350.422 243.76 349.662 242.93 349.122 241.85C348.582 240.77 348.312 239.5 348.312 238.04V228.26H353.412V237.35C353.412 238.47 353.702 239.34 354.282 239.96C354.862 240.58 355.642 240.89 356.622 240.89C357.622 240.89 358.412 240.58 358.992 239.96C359.572 239.34 359.862 238.47 359.862 237.35V228.26H364.992ZM378.006 240.65V245H375.396C373.536 245 372.086 244.55 371.046 243.65C370.006 242.73 369.486 241.24 369.486 239.18V232.52H367.446V228.26H369.486V224.18H374.616V228.26H377.976V232.52H374.616V239.24C374.616 239.74 374.736 240.1 374.976 240.32C375.216 240.54 375.616 240.65 376.176 240.65H378.006ZM383.444 226.52C382.544 226.52 381.804 226.26 381.224 225.74C380.664 225.2 380.384 224.54 380.384 223.76C380.384 222.96 380.664 222.3 381.224 221.78C381.804 221.24 382.544 220.97 383.444 220.97C384.324 220.97 385.044 221.24 385.604 221.78C386.184 222.3 386.474 222.96 386.474 223.76C386.474 224.54 386.184 225.2 385.604 225.74C385.044 226.26 384.324 226.52 383.444 226.52ZM385.994 228.26V245H380.864V228.26H385.994ZM392.112 245.24C391.212 245.24 390.472 244.98 389.892 244.46C389.332 243.92 389.052 243.26 389.052 242.48C389.052 241.68 389.332 241.01 389.892 240.47C390.472 239.93 391.212 239.66 392.112 239.66C392.992 239.66 393.712 239.93 394.272 240.47C394.852 241.01 395.142 241.68 395.142 242.48C395.142 243.26 394.852 243.92 394.272 244.46C393.712 244.98 392.992 245.24 392.112 245.24Z" fill="black"/>
<path d="M1050.27 58H661.537C660.056 58.0013 658.637 58.5901 657.59 59.6371C656.543 60.6841 655.954 62.1038 655.953 63.5844V327.001C655.954 328.482 656.543 329.901 657.59 330.948C658.637 331.995 660.056 332.584 661.537 332.586H1050.27C1051.08 332.586 1051.88 332.41 1052.61 332.072C1053.34 331.734 1053.99 331.24 1054.52 330.626C1054.56 330.578 1054.6 330.526 1054.64 330.472C1054.97 330.065 1055.24 329.609 1055.44 329.121C1055.72 328.45 1055.86 327.729 1055.86 327.001V63.5845C1055.86 62.1028 1055.27 60.6823 1054.22 59.6352C1053.17 58.5881 1051.75 57.9999 1050.27 58ZM1054.27 327.001C1054.27 327.78 1054.04 328.542 1053.61 329.191C1053.22 329.763 1052.7 330.229 1052.1 330.549C1051.53 330.841 1050.91 330.992 1050.27 330.991H661.537C660.479 330.99 659.465 330.569 658.717 329.821C657.969 329.073 657.548 328.059 657.547 327.001V63.5845C657.548 62.5267 657.969 61.5126 658.717 60.7647C659.465 60.0167 660.479 59.5959 661.537 59.5947H1050.27C1051.33 59.5945 1052.34 60.0146 1053.09 60.7627C1053.84 61.5108 1054.27 62.5257 1054.27 63.5845V327.001Z" fill="#3F3D56"/>
<path d="M1055.06 80.3821H656.748V81.9786H1055.06V80.3821Z" fill="#3F3D56"/>
<path d="M670.318 74.7627C672.963 74.7627 675.107 72.6184 675.107 69.9733C675.107 67.3283 672.963 65.184 670.318 65.184C667.673 65.184 665.529 67.3283 665.529 69.9733C665.529 72.6184 667.673 74.7627 670.318 74.7627Z" fill="#3F3D56"/>
<path d="M684.088 74.7627C686.733 74.7627 688.877 72.6184 688.877 69.9733C688.877 67.3283 686.733 65.184 684.088 65.184C681.442 65.184 679.298 67.3283 679.298 69.9733C679.298 72.6184 681.442 74.7627 684.088 74.7627Z" fill="#3F3D56"/>
<path d="M697.857 74.7627C700.502 74.7627 702.646 72.6184 702.646 69.9733C702.646 67.3283 700.502 65.184 697.857 65.184C695.212 65.184 693.068 67.3283 693.068 69.9733C693.068 72.6184 695.212 74.7627 697.857 74.7627Z" fill="#3F3D56"/>
<path d="M955.873 117.336H756.062C753.854 117.336 751.737 116.459 750.175 114.898C748.614 113.336 747.737 111.219 747.737 109.011C747.737 106.803 748.614 104.685 750.175 103.124C751.737 101.562 753.854 100.685 756.062 100.685H955.873C958.081 100.685 960.198 101.562 961.76 103.124C963.321 104.685 964.198 106.803 964.198 109.011C964.198 111.219 963.321 113.336 961.76 114.898C960.198 116.459 958.081 117.336 955.873 117.336ZM756.062 101.966C754.194 101.966 752.402 102.708 751.081 104.029C749.76 105.35 749.018 107.142 749.018 109.011C749.018 110.879 749.76 112.671 751.081 113.992C752.402 115.313 754.194 116.055 756.062 116.055H955.873C957.741 116.055 959.533 115.313 960.854 113.992C962.175 112.671 962.917 110.879 962.917 109.011C962.917 107.142 962.175 105.35 960.854 104.029C959.533 102.708 957.741 101.966 955.873 101.966H756.062Z" fill="black"/>
<path d="M757.732 168.249H739.8C738.441 168.249 737.138 167.709 736.177 166.749C735.216 165.788 734.677 164.485 734.677 163.126C734.677 161.767 735.216 160.464 736.177 159.503C737.138 158.542 738.441 158.003 739.8 158.003H757.732C759.09 158.003 760.393 158.542 761.354 159.503C762.315 160.464 762.855 161.767 762.855 163.126C762.855 164.485 762.315 165.788 761.354 166.749C760.393 167.709 759.09 168.249 757.732 168.249Z" fill="#4F4F4F"/>
<path d="M778.865 185.54H739.8C738.441 185.54 737.138 185.001 736.177 184.04C735.216 183.079 734.677 181.776 734.677 180.417C734.677 179.058 735.216 177.755 736.177 176.794C737.138 175.834 738.441 175.294 739.8 175.294H778.865C780.224 175.294 781.527 175.834 782.488 176.794C783.449 177.755 783.989 179.058 783.989 180.417C783.989 181.776 783.449 183.079 782.488 184.04C781.527 185.001 780.224 185.54 778.865 185.54Z" fill="#4F4F4F"/>
<path d="M760.934 243.819H743.002C741.643 243.819 740.34 243.279 739.379 242.318C738.418 241.357 737.879 240.054 737.879 238.695C737.879 237.336 738.418 236.033 739.379 235.072C740.34 234.112 741.643 233.572 743.002 233.572H760.934C762.292 233.572 763.596 234.112 764.556 235.072C765.517 236.033 766.057 237.336 766.057 238.695C766.057 240.054 765.517 241.357 764.556 242.318C763.596 243.279 762.292 243.819 760.934 243.819Z" fill="#4F4F4F"/>
<path d="M782.067 261.11H743.002C741.643 261.11 740.34 260.57 739.379 259.609C738.418 258.648 737.879 257.345 737.879 255.986C737.879 254.628 738.418 253.325 739.379 252.364C740.34 251.403 741.643 250.863 743.002 250.863H782.067C783.426 250.863 784.729 251.403 785.69 252.364C786.651 253.325 787.191 254.628 787.191 255.986C787.191 257.345 786.651 258.648 785.69 259.609C784.729 260.57 783.426 261.11 782.067 261.11Z" fill="#4F4F4F"/>
<path d="M878.77 241.897H860.839C859.48 241.897 858.177 241.357 857.216 240.397C856.255 239.436 855.715 238.133 855.715 236.774C855.715 235.415 856.255 234.112 857.216 233.151C858.177 232.19 859.48 231.651 860.839 231.651H878.77C880.129 231.651 881.432 232.19 882.393 233.151C883.354 234.112 883.894 235.415 883.894 236.774C883.894 238.133 883.354 239.436 882.393 240.397C881.432 241.357 880.129 241.897 878.77 241.897Z" fill="#4F4F4F"/>
<path d="M899.904 259.189H860.839C859.48 259.189 858.177 258.649 857.216 257.688C856.255 256.727 855.715 255.424 855.715 254.065C855.715 252.706 856.255 251.403 857.216 250.442C858.177 249.482 859.48 248.942 860.839 248.942H899.904C901.263 248.942 902.566 249.482 903.527 250.442C904.488 251.403 905.027 252.706 905.027 254.065C905.027 255.424 904.488 256.727 903.527 257.688C902.566 258.649 901.263 259.189 899.904 259.189Z" fill="#4F4F4F"/>
<path d="M876.849 171.451H858.917C857.559 171.451 856.255 170.911 855.295 169.951C854.334 168.99 853.794 167.687 853.794 166.328C853.794 164.969 854.334 163.666 855.295 162.705C856.255 161.744 857.559 161.205 858.917 161.205H876.849C878.208 161.205 879.511 161.744 880.472 162.705C881.433 163.666 881.972 164.969 881.972 166.328C881.972 167.687 881.433 168.99 880.472 169.951C879.511 170.911 878.208 171.451 876.849 171.451Z" fill="#4F4F4F"/>
<path d="M897.983 188.743H858.917C857.559 188.743 856.255 188.203 855.295 187.242C854.334 186.281 853.794 184.978 853.794 183.619C853.794 182.26 854.334 180.957 855.295 179.996C856.255 179.036 857.559 178.496 858.917 178.496H897.983C899.342 178.496 900.645 179.036 901.606 179.996C902.566 180.957 903.106 182.26 903.106 183.619C903.106 184.978 902.566 186.281 901.606 187.242C900.645 188.203 899.342 188.743 897.983 188.743Z" fill="#4F4F4F"/>
<path d="M996.607 167.609H978.676C977.317 167.609 976.014 167.069 975.053 166.108C974.092 165.147 973.552 163.844 973.552 162.485C973.552 161.127 974.092 159.824 975.053 158.863C976.014 157.902 977.317 157.362 978.676 157.362H996.607C997.966 157.362 999.269 157.902 1000.23 158.863C1001.19 159.824 1001.73 161.127 1001.73 162.485C1001.73 163.844 1001.19 165.147 1000.23 166.108C999.269 167.069 997.966 167.609 996.607 167.609Z" fill="#4F4F4F"/>
<path d="M1017.74 184.9H978.676C977.317 184.9 976.014 184.36 975.053 183.399C974.092 182.439 973.552 181.136 973.552 179.777C973.552 178.418 974.092 177.115 975.053 176.154C976.014 175.193 977.317 174.653 978.676 174.653H1017.74C1019.1 174.653 1020.4 175.193 1021.36 176.154C1022.32 177.115 1022.86 178.418 1022.86 179.777C1022.86 181.136 1022.32 182.439 1021.36 183.399C1020.4 184.36 1019.1 184.9 1017.74 184.9Z" fill="#4F4F4F"/>
<path d="M708.162 190.984C718.773 190.984 727.375 182.382 727.375 171.771C727.375 161.161 718.773 152.559 708.162 152.559C697.551 152.559 688.949 161.161 688.949 171.771C688.949 182.382 697.551 190.984 708.162 190.984Z" fill="#2D9CDB"/>
<path d="M717.128 180.417H699.196C698.687 180.417 698.199 180.214 697.838 179.854C697.478 179.494 697.276 179.005 697.275 178.496V165.047C697.276 164.538 697.478 164.049 697.838 163.689C698.199 163.329 698.687 163.127 699.196 163.126H704.244C704.573 163.125 704.896 163.208 705.182 163.368C705.469 163.528 705.709 163.76 705.881 164.04L707.288 166.328H717.128C717.637 166.329 718.126 166.531 718.486 166.891C718.846 167.252 719.049 167.74 719.049 168.249V178.496C719.049 179.005 718.846 179.494 718.486 179.854C718.126 180.214 717.637 180.417 717.128 180.417ZM699.196 164.407C699.026 164.407 698.864 164.475 698.744 164.595C698.624 164.715 698.556 164.877 698.556 165.047V178.496C698.556 178.666 698.624 178.829 698.744 178.949C698.864 179.069 699.026 179.136 699.196 179.136H717.128C717.298 179.136 717.461 179.069 717.581 178.949C717.701 178.829 717.768 178.666 717.768 178.496V168.249C717.768 168.08 717.701 167.917 717.581 167.797C717.461 167.677 717.298 167.609 717.128 167.609H706.573L704.79 164.711C704.733 164.618 704.653 164.541 704.557 164.488C704.461 164.434 704.354 164.406 704.244 164.407H699.196Z" fill="white"/>
<path d="M825.999 194.186C836.61 194.186 845.211 185.584 845.211 174.974C845.211 164.363 836.61 155.761 825.999 155.761C815.388 155.761 806.786 164.363 806.786 174.974C806.786 185.584 815.388 194.186 825.999 194.186Z" fill="#2D9CDB"/>
<path d="M834.324 187.142H817.674C817.164 187.141 816.676 186.939 816.316 186.578C815.955 186.218 815.753 185.73 815.752 185.22V164.727C815.753 164.218 815.955 163.729 816.316 163.369C816.676 163.009 817.164 162.806 817.674 162.806H829.739C830.176 162.806 830.601 162.956 830.942 163.23L835.528 166.914C835.752 167.094 835.934 167.322 836.058 167.581C836.182 167.84 836.246 168.124 836.246 168.412V185.22C836.245 185.73 836.043 186.218 835.682 186.578C835.322 186.939 834.834 187.141 834.324 187.142ZM817.674 164.087C817.504 164.087 817.341 164.154 817.221 164.274C817.101 164.394 817.033 164.557 817.033 164.727V185.22C817.033 185.39 817.101 185.553 817.221 185.673C817.341 185.793 817.504 185.861 817.674 185.861H834.324C834.494 185.861 834.657 185.793 834.777 185.673C834.897 185.553 834.965 185.39 834.965 185.22V168.412C834.965 168.316 834.944 168.221 834.902 168.135C834.861 168.049 834.8 167.973 834.726 167.913L830.14 164.228C830.026 164.136 829.884 164.087 829.739 164.087H817.674Z" fill="white"/>
<path d="M831.122 171.772H820.876C820.706 171.772 820.543 171.704 820.423 171.584C820.303 171.464 820.235 171.301 820.235 171.131C820.235 170.961 820.303 170.798 820.423 170.678C820.543 170.558 820.706 170.491 820.876 170.491H831.122C831.292 170.491 831.455 170.558 831.575 170.678C831.695 170.798 831.763 170.961 831.763 171.131C831.763 171.301 831.695 171.464 831.575 171.584C831.455 171.704 831.292 171.772 831.122 171.772Z" fill="white"/>
<path d="M831.122 175.614H820.876C820.706 175.614 820.543 175.547 820.423 175.427C820.303 175.306 820.235 175.144 820.235 174.974C820.235 174.804 820.303 174.641 820.423 174.521C820.543 174.401 820.706 174.333 820.876 174.333H831.122C831.292 174.333 831.455 174.401 831.575 174.521C831.695 174.641 831.763 174.804 831.763 174.974C831.763 175.144 831.695 175.306 831.575 175.427C831.455 175.547 831.292 175.614 831.122 175.614Z" fill="white"/>
<path d="M831.122 179.457H820.876C820.706 179.457 820.543 179.389 820.423 179.269C820.303 179.149 820.235 178.986 820.235 178.816C820.235 178.646 820.303 178.483 820.423 178.363C820.543 178.243 820.706 178.176 820.876 178.176H831.122C831.292 178.176 831.455 178.243 831.575 178.363C831.695 178.483 831.763 178.646 831.763 178.816C831.763 178.986 831.695 179.149 831.575 179.269C831.455 179.389 831.292 179.457 831.122 179.457Z" fill="white"/>
<path d="M944.476 190.344C955.087 190.344 963.689 181.742 963.689 171.131C963.689 160.52 955.087 151.919 944.476 151.919C933.865 151.919 925.264 160.52 925.264 171.131C925.264 181.742 933.865 190.344 944.476 190.344Z" fill="#2D9CDB"/>
<path d="M953.442 178.176H935.51C935.001 178.175 934.512 177.973 934.152 177.612C933.792 177.252 933.589 176.764 933.589 176.255V166.008C933.589 165.498 933.792 165.01 934.152 164.65C934.512 164.29 935.001 164.087 935.51 164.087H953.442C953.951 164.087 954.44 164.29 954.8 164.65C955.16 165.01 955.363 165.498 955.363 166.008V176.255C955.363 176.764 955.16 177.252 954.8 177.612C954.44 177.973 953.951 178.175 953.442 178.176ZM935.51 165.367C935.34 165.368 935.178 165.435 935.057 165.555C934.937 165.675 934.87 165.838 934.87 166.008V176.255C934.87 176.424 934.937 176.587 935.057 176.707C935.178 176.827 935.34 176.895 935.51 176.895H953.442C953.612 176.895 953.774 176.827 953.894 176.707C954.015 176.587 954.082 176.424 954.082 176.255V166.008C954.082 165.838 954.015 165.675 953.894 165.555C953.774 165.435 953.612 165.368 953.442 165.367H935.51Z" fill="white"/>
<path d="M944.476 172.821C944.116 172.821 943.763 172.721 943.458 172.531L933.89 166.551C933.746 166.461 933.644 166.317 933.606 166.152C933.568 165.987 933.597 165.813 933.687 165.669C933.777 165.525 933.92 165.423 934.086 165.384C934.251 165.346 934.425 165.375 934.569 165.465L944.137 171.445C944.239 171.508 944.356 171.541 944.476 171.541C944.596 171.541 944.714 171.508 944.816 171.445L954.383 165.465C954.527 165.375 954.701 165.346 954.866 165.384C955.031 165.423 955.175 165.525 955.265 165.669C955.355 165.813 955.384 165.987 955.346 166.152C955.308 166.317 955.206 166.461 955.062 166.551L945.495 172.531C945.189 172.721 944.836 172.821 944.476 172.821Z" fill="white"/>
<path d="M708.162 266.553C718.773 266.553 727.375 257.952 727.375 247.341C727.375 236.73 718.773 228.128 708.162 228.128C697.551 228.128 688.949 236.73 688.949 247.341C688.949 257.952 697.551 266.553 708.162 266.553Z" fill="#2D9CDB"/>
<path d="M717.128 254.386H699.196C698.687 254.385 698.199 254.182 697.838 253.822C697.478 253.462 697.276 252.974 697.275 252.464V242.218C697.276 241.708 697.478 241.22 697.838 240.86C698.199 240.499 698.687 240.297 699.196 240.296H717.128C717.637 240.297 718.126 240.499 718.486 240.86C718.846 241.22 719.049 241.708 719.049 242.218V252.464C719.049 252.974 718.846 253.462 718.486 253.822C718.126 254.182 717.637 254.385 717.128 254.386ZM699.196 241.577C699.026 241.577 698.864 241.645 698.744 241.765C698.624 241.885 698.556 242.048 698.556 242.218V252.464C698.556 252.634 698.624 252.797 698.744 252.917C698.864 253.037 699.026 253.105 699.196 253.105H717.128C717.298 253.105 717.461 253.037 717.581 252.917C717.701 252.797 717.768 252.634 717.768 252.464V242.218C717.768 242.048 717.701 241.885 717.581 241.765C717.461 241.645 717.298 241.577 717.128 241.577H699.196Z" fill="white"/>
<path d="M714.286 254.386H701.398C701.173 254.386 700.952 254.326 700.758 254.214C700.563 254.102 700.401 253.94 700.289 253.745C700.176 253.55 700.117 253.33 700.117 253.105C700.117 252.88 700.176 252.659 700.289 252.464L704.171 245.74C704.283 245.545 704.445 245.383 704.64 245.271C704.834 245.159 705.055 245.099 705.28 245.099C705.505 245.099 705.726 245.159 705.921 245.271C706.115 245.383 706.277 245.545 706.389 245.74L708.897 250.083L710.349 247.567C710.462 247.372 710.623 247.21 710.818 247.098C711.013 246.985 711.234 246.926 711.458 246.926C711.683 246.926 711.904 246.985 712.099 247.098C712.294 247.21 712.455 247.372 712.568 247.567L715.395 252.464C715.508 252.659 715.567 252.88 715.567 253.105C715.567 253.33 715.508 253.55 715.395 253.745C715.283 253.94 715.121 254.102 714.926 254.214C714.732 254.326 714.511 254.386 714.286 254.386H714.286ZM714.286 253.105L711.458 248.207L709.451 251.684C709.395 251.781 709.314 251.862 709.217 251.918C709.12 251.974 709.009 252.004 708.897 252.004C708.784 252.004 708.674 251.974 708.576 251.918C708.479 251.862 708.398 251.781 708.342 251.684L705.28 246.38L701.398 253.105H714.286Z" fill="white"/>
<path d="M715.207 245.42C715.914 245.42 716.487 244.846 716.487 244.139C716.487 243.431 715.914 242.858 715.207 242.858C714.499 242.858 713.926 243.431 713.926 244.139C713.926 244.846 714.499 245.42 715.207 245.42Z" fill="white"/>
<path d="M827.28 264.632C837.891 264.632 846.492 256.03 846.492 245.42C846.492 234.809 837.891 226.207 827.28 226.207C816.669 226.207 808.067 234.809 808.067 245.42C808.067 256.03 816.669 264.632 827.28 264.632Z" fill="#2D9CDB"/>
<path d="M827.28 245.74C826.14 245.74 825.026 245.402 824.078 244.769C823.13 244.135 822.391 243.235 821.955 242.182C821.519 241.129 821.404 239.97 821.627 238.852C821.849 237.734 822.398 236.707 823.204 235.901C824.01 235.094 825.037 234.546 826.155 234.323C827.273 234.101 828.432 234.215 829.486 234.651C830.539 235.087 831.439 235.826 832.072 236.774C832.706 237.722 833.044 238.836 833.044 239.976C833.042 241.504 832.434 242.969 831.354 244.05C830.273 245.13 828.808 245.738 827.28 245.74ZM827.28 235.493C826.393 235.493 825.527 235.756 824.789 236.249C824.052 236.741 823.477 237.441 823.138 238.261C822.799 239.08 822.71 239.981 822.883 240.851C823.056 241.72 823.483 242.519 824.11 243.146C824.737 243.773 825.536 244.2 826.405 244.373C827.275 244.546 828.176 244.457 828.995 244.118C829.815 243.779 830.515 243.204 831.007 242.467C831.5 241.729 831.763 240.863 831.763 239.976C831.761 238.788 831.289 237.648 830.448 236.808C829.608 235.967 828.468 235.495 827.28 235.493Z" fill="white"/>
<path d="M832.403 256.627H822.157C821.562 256.626 820.993 256.39 820.572 255.97C820.152 255.549 819.916 254.98 819.915 254.386C819.915 252.432 820.691 250.559 822.072 249.178C823.453 247.797 825.327 247.021 827.28 247.021C829.233 247.021 831.106 247.797 832.488 249.178C833.869 250.559 834.645 252.432 834.645 254.386C834.644 254.98 834.408 255.549 833.987 255.97C833.567 256.39 832.997 256.626 832.403 256.627ZM827.28 248.302C825.667 248.303 824.12 248.945 822.98 250.086C821.839 251.226 821.198 252.773 821.196 254.386C821.196 254.64 821.297 254.884 821.478 255.064C821.658 255.245 821.902 255.346 822.157 255.346H832.403C832.658 255.346 832.902 255.245 833.082 255.064C833.262 254.884 833.364 254.64 833.364 254.386C833.362 252.773 832.72 251.226 831.58 250.086C830.439 248.945 828.893 248.303 827.28 248.302Z" fill="white"/>
<path d="M641.833 359.764H649.685L653.42 329.48L641.832 329.48L641.833 359.764Z" fill="#FFB8B8"/>
<path d="M664.827 367.053L640.151 367.055L640.151 357.521L655.293 357.52C657.821 357.52 660.246 358.524 662.034 360.312C663.822 362.1 664.827 364.525 664.827 367.053L664.827 367.053Z" fill="#2F2E41"/>
<path d="M612.374 359.764H620.226L623.961 329.48L612.373 329.48L612.374 359.764Z" fill="#FFB8B8"/>
<path d="M635.368 367.053L610.692 367.055L610.692 357.521L625.834 357.52C628.362 357.52 630.787 358.524 632.575 360.312C634.363 362.1 635.368 364.525 635.368 367.053L635.368 367.053Z" fill="#2F2E41"/>
<path d="M613.333 269.568C614.179 269.024 614.895 268.301 615.432 267.45C615.968 266.599 616.311 265.641 616.437 264.643C616.563 263.646 616.468 262.632 616.16 261.675C615.852 260.717 615.338 259.839 614.654 259.102L619.824 185.737L604.932 187.181L604.523 259.028C603.361 260.259 602.691 261.874 602.639 263.567C602.588 265.259 603.16 266.912 604.246 268.211C605.332 269.511 606.857 270.366 608.532 270.616C610.207 270.867 611.915 270.494 613.333 269.568H613.333Z" fill="#FFB8B8"/>
<path d="M642.067 344.511C641.363 344.509 640.684 344.25 640.157 343.782C639.63 343.314 639.292 342.67 639.206 341.971L634.642 303.801C634.578 303.263 634.321 302.767 633.92 302.404C633.518 302.041 632.999 301.836 632.458 301.826C631.916 301.816 631.39 302.002 630.975 302.35C630.561 302.698 630.286 303.184 630.202 303.719L624.453 340.266C624.349 340.945 624.004 341.565 623.482 342.012C622.959 342.458 622.294 342.703 621.606 342.7H612.288C611.908 342.7 611.531 342.625 611.18 342.478C610.829 342.332 610.51 342.118 610.242 341.848C609.975 341.578 609.763 341.258 609.619 340.906C609.476 340.553 609.403 340.176 609.406 339.796L613.853 258.761C613.855 258.071 614.105 257.405 614.559 256.885C615.012 256.365 615.638 256.026 616.321 255.931L650.9 250.911C651.311 250.852 651.729 250.882 652.128 250.999C652.526 251.116 652.894 251.318 653.207 251.591C653.52 251.864 653.77 252.201 653.941 252.579C654.112 252.958 654.198 253.369 654.196 253.784L653.592 341.237C653.587 341.974 653.3 342.681 652.789 343.213C652.279 343.745 651.584 344.06 650.848 344.095L642.204 344.507C642.158 344.51 642.113 344.511 642.067 344.511Z" fill="#2F2E41"/>
<path d="M624.14 261.823C620.814 261.81 617.516 261.223 614.39 260.087C613.86 259.891 613.399 259.544 613.067 259.087C612.734 258.631 612.544 258.086 612.521 257.522C612.223 250.902 610.477 216.827 605.397 196.042C604.409 191.965 604.651 187.687 606.091 183.746C607.531 179.806 610.105 176.381 613.489 173.901C613.762 173.705 614.041 173.512 614.325 173.323C617.264 171.366 620.654 170.195 624.173 169.919C627.692 169.643 631.224 170.272 634.431 171.747C637.745 173.229 640.624 175.535 642.794 178.445C644.965 181.354 646.355 184.771 646.832 188.37L655.117 249.882C655.171 250.267 655.145 250.658 655.043 251.033C654.94 251.407 654.763 251.757 654.521 252.061C654.285 252.362 653.989 252.613 653.653 252.797C653.317 252.981 652.947 253.095 652.566 253.132C649.695 253.419 643.74 254.531 636.12 258.765C632.455 260.795 628.33 261.848 624.14 261.823Z" fill="#3F3D56"/>
<path d="M614.011 210.834L600.376 207.137C599.639 206.936 599.012 206.451 598.632 205.788C598.251 205.125 598.15 204.339 598.349 203.601L603.142 185.922C603.656 184.029 604.852 182.392 606.501 181.328C608.149 180.264 610.133 179.849 612.07 180.161C614.007 180.474 615.76 181.492 616.99 183.02C618.221 184.548 618.842 186.478 618.734 188.437L617.643 208.211C617.619 208.64 617.5 209.058 617.294 209.434C617.088 209.811 616.801 210.137 616.453 210.389C616.105 210.64 615.705 210.81 615.282 210.887C614.86 210.964 614.426 210.946 614.011 210.834Z" fill="#3F3D56"/>
<path d="M629.189 163.394C637.876 163.394 644.919 156.352 644.919 147.665C644.919 138.978 637.876 131.936 629.189 131.936C620.502 131.936 613.46 138.978 613.46 147.665C613.46 156.352 620.502 163.394 629.189 163.394Z" fill="#FFB8B8"/>
<path d="M686.189 178.568C686.11 178.914 686.059 179.265 686.036 179.618L658.525 195.489L651.838 191.64L644.709 200.972L659.015 211.168L690.4 186.408C691.68 186.881 693.074 186.954 694.397 186.616C695.719 186.278 696.907 185.546 697.803 184.516C698.699 183.487 699.261 182.209 699.413 180.852C699.565 179.496 699.3 178.125 698.654 176.923C698.008 175.72 697.012 174.743 695.797 174.121C694.582 173.499 693.206 173.261 691.853 173.44C690.5 173.618 689.233 174.205 688.222 175.121C687.21 176.037 686.501 177.239 686.189 178.568V178.568Z" fill="#FFB8B8"/>
<path d="M656.245 196.255L644.394 203.946C643.753 204.361 642.973 204.505 642.226 204.346C641.478 204.186 640.825 203.737 640.408 203.097L630.437 187.732C629.369 186.086 628.948 184.103 629.255 182.165C629.562 180.227 630.576 178.472 632.101 177.237C633.626 176.003 635.555 175.377 637.514 175.48C639.473 175.583 641.325 176.408 642.712 177.795L656.714 191.8C657.018 192.104 657.25 192.471 657.393 192.876C657.536 193.281 657.587 193.712 657.542 194.139C657.497 194.566 657.357 194.978 657.133 195.344C656.909 195.71 656.605 196.021 656.245 196.255Z" fill="#3F3D56"/>
<path d="M618.058 160.109C620.993 163.235 626.442 161.557 626.825 157.287C626.855 156.955 626.853 156.622 626.818 156.291C626.621 154.399 625.528 152.682 625.79 150.685C625.849 150.188 626.034 149.714 626.328 149.308C628.666 146.177 634.155 150.709 636.362 147.874C637.715 146.136 636.125 143.4 637.163 141.457C638.533 138.893 642.593 140.158 645.139 138.754C647.971 137.191 647.802 132.846 645.937 130.202C643.663 126.979 639.677 125.259 635.74 125.011C631.802 124.763 627.893 125.827 624.217 127.26C620.041 128.887 615.899 131.136 613.329 134.808C610.204 139.274 609.903 145.278 611.466 150.5C612.417 153.676 615.662 157.557 618.058 160.109Z" fill="#2F2E41"/>
<path d="M680.299 367.099H590.64C590.471 367.099 590.308 367.031 590.188 366.911C590.067 366.791 590 366.628 590 366.459C590 366.289 590.067 366.126 590.188 366.006C590.308 365.886 590.471 365.818 590.64 365.818H680.299C680.469 365.818 680.632 365.886 680.752 366.006C680.872 366.126 680.939 366.289 680.939 366.459C680.939 366.628 680.872 366.791 680.752 366.911C680.632 367.031 680.469 367.099 680.299 367.099Z" fill="#3F3D56"/>
<rect x="530" y="421" width="12" height="12" rx="6" fill="#4F4F4F" fill-opacity="0.5"/>
<rect x="557" y="421" width="12" height="12" rx="6" fill="#2D9CDB"/>
<rect x="584" y="421" width="12" height="12" rx="6" fill="#979FA4"/>
<rect x="611" y="421" width="12" height="12" rx="6" fill="#4F4F4F" fill-opacity="0.5"/>
</svg>
